<svg width="512" height="512" viewBox="0 0 512 512" fill="none" xmlns="http://www.w3.org/2000/svg">
<path d="M256 512C397.385 512 512 397.385 512 256C512 114.615 397.385 0 256 0C114.615 0 0 114.615 0 256C0 397.385 114.615 512 256 512Z" fill="#174CD3"/>
<path d="M256 186.762L197.869 220.217V287.193L256 320.781L314.13 287.193V220.217L256 186.762Z" fill="white"/>
<path d="M90.5215 359.69L251.544 452.673L305.218 359.69H90.5215Z" fill="white"/>
<path d="M88.6582 154.903L139.738 243.495L241.966 66.377L88.6582 154.903Z" fill="white"/>
<path d="M206.783 147.92H411.038L257.93 59.3271L206.783 147.92Z" fill="white"/>
<path d="M323.043 158.162L425.203 335.28V158.162H323.043Z" fill="white"/>
<path d="M372.127 264.048L270.033 441.166L423.208 352.64L372.127 264.048Z" fill="white"/>
<path d="M86.7969 349.381H188.957L86.7969 172.263V349.381Z" fill="white"/>
</svg>
