<svg width="834" height="94" viewBox="0 0 834 94" fill="none" xmlns="http://www.w3.org/2000/svg">
<path d="M47 94C72.9574 94 94 72.9574 94 47C94 21.0426 72.9574 0 47 0C21.0426 0 0 21.0426 0 47C0 72.9574 21.0426 94 47 94Z" fill="#1552EF"/>
<path d="M47.0005 34.2887L36.3281 40.4308V52.7273L47.0005 58.8938L57.6729 52.7273V40.4308L47.0005 34.2887Z" fill="white"/>
<path d="M16.6196 66.0369L46.1824 83.1078L56.0366 66.0369H16.6196Z" fill="white"/>
<path d="M16.2773 28.4393L25.6554 44.7043L44.4236 12.1865L16.2773 28.4393Z" fill="white"/>
<path d="M37.9639 27.1572H75.4637L47.3541 10.8922L37.9639 27.1572Z" fill="white"/>
<path d="M59.3091 29.0378L78.0651 61.5556V29.0378H59.3091Z" fill="white"/>
<path d="M68.3205 48.4775L49.5767 80.9953L77.6985 64.7425L68.3205 48.4775Z" fill="white"/>
<path d="M15.9355 64.1444H34.6916L15.9355 31.6266V64.1444Z" fill="white"/>
<rect x="688" y="29" width="145.6" height="55.9999" rx="28" fill="#EBEEF7"/>
<path d="M718.711 44.9519H711.543V67.7999H718.743C726.679 67.7999 731.031 63.3199 731.031 56.1199C731.031 49.1759 726.679 44.9519 718.711 44.9519ZM716.247 63.7999V48.9519H718.743C723.319 48.9519 726.231 51.2879 726.231 56.1199C726.231 61.2719 723.319 63.7999 718.711 63.7999H716.247ZM747.127 44.4079C739.479 44.4079 735.095 50.0079 735.095 56.3759C735.095 62.7439 739.479 68.3439 747.127 68.3439C754.775 68.3439 759.127 62.7439 759.127 56.3759C759.127 50.0079 754.775 44.4079 747.127 44.4079ZM739.799 56.3759C739.799 51.9919 742.519 48.4079 747.127 48.4079C751.671 48.4079 754.423 51.9919 754.423 56.3759C754.423 60.7599 751.671 64.3439 747.127 64.3439C742.519 64.3439 739.799 60.7599 739.799 56.3759ZM785.637 60.5039H780.997C780.069 62.8719 778.213 64.2159 774.885 64.2159C770.885 64.2159 767.941 60.9199 767.941 56.4079C767.941 51.7999 770.853 48.5359 774.885 48.5359C777.733 48.5359 779.845 49.6239 781.029 52.2479H785.669C784.229 47.4159 780.613 44.5359 774.885 44.5359C768.101 44.5359 763.237 49.3679 763.237 56.4079C763.237 63.5119 768.069 68.2159 774.821 68.2159C780.453 68.2159 784.421 65.3039 785.637 60.5039ZM795.18 60.3439H790.348C790.86 65.8159 794.828 68.3439 799.82 68.3439C804.108 68.3439 808.3 66.2319 808.3 61.5599C808.3 56.6959 804.524 55.5759 800.62 54.4239C797.708 53.5599 795.98 52.7279 795.98 50.9679C795.98 49.0799 797.548 48.2799 799.532 48.2799C801.836 48.2799 803.052 49.3679 803.468 51.7359H808.172C807.66 46.4879 804.236 44.4079 799.66 44.4079C795.468 44.4079 791.308 46.4559 791.34 50.8079C791.34 55.4479 795.084 56.7919 798.86 57.9119C801.772 58.8079 803.66 59.3519 803.66 61.5279C803.66 63.4799 802.252 64.4399 799.82 64.4399C797.26 64.4399 795.372 62.9359 795.18 60.3439Z" fill="#5A5D6B"/>
<path d="M188.376 57H177.144C175.512 67.176 168.696 73.032 159.288 73.032C146.808 73.032 138.648 63.336 138.648 47.88C138.648 32.616 146.52 22.728 158.616 22.728C168.408 22.728 174.84 28.488 176.664 38.856H187.896C185.688 23.688 173.496 13.8 158.232 13.8C139.896 13.8 127.224 28.968 127.224 47.88C127.224 67.368 140.184 81.96 158.52 81.96C173.784 81.96 186.072 72.168 188.376 57ZM240.395 57C240.395 44.04 231.467 32.04 216.875 32.04C202.283 32.04 193.355 44.04 193.355 57C193.355 69.96 202.283 81.96 216.875 81.96C231.467 81.96 240.395 69.96 240.395 57ZM204.395 57C204.395 46.728 208.907 39.816 216.875 39.816C224.939 39.816 229.451 46.728 229.451 57C229.451 67.176 224.939 74.184 216.875 74.184C208.907 74.184 204.395 67.176 204.395 57ZM259.15 81V52.2C259.15 44.328 262.318 39.912 268.75 39.912C275.182 39.912 278.35 43.944 278.35 52.872V81H288.814V49.8C288.814 39.24 283.63 32.04 273.07 32.04C266.062 32.04 261.07 35.688 259.054 42.408H258.862V33H248.686V81H259.15ZM336.992 67.176C336.992 59.976 333.536 54.792 323.168 52.488L316.64 51.048C310.496 49.608 307.808 48.552 307.808 45.384C307.808 41.832 311.36 39.816 315.968 39.816C320.672 39.816 324.992 41.64 325.664 47.208H336.032C335.36 38.472 327.296 32.04 315.968 32.04C305.696 32.04 297.248 37.512 297.248 46.248C297.248 53.832 302.816 58.344 312.224 60.36L318.752 61.8C324.32 63.048 326.528 65.256 326.528 67.944C326.528 72.072 322.112 74.184 317.408 74.184C312.224 74.184 307.328 70.728 306.752 64.584H296.384C297.056 73.416 304.16 81.96 317.312 81.96C328.352 81.96 336.992 76.488 336.992 67.176ZM369.366 81V73.224H363.414C359.766 73.224 358.326 72.072 358.326 68.04V40.776H369.75V33H358.326V22.056H347.862V33H339.894V40.776H347.862V70.44C347.862 77.448 351.702 81 359.19 81H369.366ZM416.953 66.12H406.489C405.337 69.96 402.649 74.184 396.409 74.184C389.113 74.184 384.025 69.096 383.545 60.36H417.817C419.257 43.656 409.849 32.04 395.545 32.04C381.241 32.04 373.081 43.752 373.081 57C373.081 70.248 381.433 81.96 395.737 81.96C407.449 81.96 414.937 75.624 416.953 66.12ZM395.545 39.816C402.553 39.816 406.681 44.808 407.353 52.584H383.641C384.313 44.808 388.537 39.816 395.545 39.816ZM426.068 81H436.532V14.76H426.068V81ZM447.492 81H457.956V14.76H447.492V81ZM497.428 71.592H497.716V81H507.796V51.528C507.796 38.568 500.02 32.04 487.828 32.04C475.444 32.04 467.956 38.856 467.572 48.168H478.036C478.324 42.792 481.78 39.816 487.636 39.816C493.684 39.816 497.332 43.176 497.332 49.608V51.048L485.14 52.296C474.484 53.448 465.844 57.096 465.844 66.984C465.844 75.72 472.852 81.96 482.836 81.96C490.036 81.96 495.412 78.216 497.428 71.592ZM476.884 67.08C476.884 62.472 480.532 60.168 486.868 59.496L497.332 58.344V59.976C497.332 69.096 493.012 74.184 485.524 74.184C480.916 74.184 476.884 71.592 476.884 67.08ZM542.579 81V73.224H536.627C532.979 73.224 531.539 72.072 531.539 68.04V40.776H542.963V33H531.539V22.056H521.075V33H513.107V40.776H521.075V70.44C521.075 77.448 524.915 81 532.403 81H542.579ZM560.486 25.416V14.76H549.35V25.416H560.486ZM560.102 81V33H549.638V81H560.102ZM615.414 57C615.414 44.04 606.486 32.04 591.894 32.04C577.302 32.04 568.374 44.04 568.374 57C568.374 69.96 577.302 81.96 591.894 81.96C606.486 81.96 615.414 69.96 615.414 57ZM579.414 57C579.414 46.728 583.926 39.816 591.894 39.816C599.958 39.816 604.47 46.728 604.47 57C604.47 67.176 599.958 74.184 591.894 74.184C583.926 74.184 579.414 67.176 579.414 57ZM634.168 81V52.2C634.168 44.328 637.336 39.912 643.768 39.912C650.2 39.912 653.368 43.944 653.368 52.872V81H663.832V49.8C663.832 39.24 658.648 32.04 648.088 32.04C641.08 32.04 636.088 35.688 634.072 42.408H633.88V33H623.704V81H634.168Z" fill="#1552EF"/>
</svg>
