<svg width="26" height="26" viewBox="0 0 26 26" fill="none" xmlns="http://www.w3.org/2000/svg">
<path d="M13 0C5.85 0 0 5.85 0 13C0 20.15 5.85 26 13 26C20.15 26 26 20.15 26 13C26 5.85 20.15 0 13 0ZM13.0813 3.00625L20.8813 7.475H10.4812L13.0813 3.00625ZM15.925 11.2125V14.625L13 16.25L10.075 14.5437V11.1312L13 9.425L15.925 11.2125ZM12.2688 3.33125L7.06875 12.35L4.46875 7.88125L12.2688 3.33125ZM4.3875 8.775L9.5875 17.7937H4.3875V8.775ZM12.7562 22.9937L4.63125 18.2812H15.5188L12.7562 22.9937ZM13.7312 22.425L18.9312 13.4062L21.5312 17.875L13.7312 22.425ZM21.6125 17.0625L16.4125 8.04375H21.6125V17.0625Z" fill="#2E73FA"/>
</svg>
