<svg width="244" height="32" viewBox="0 0 244 32" fill="none" xmlns="http://www.w3.org/2000/svg">
<path d="M16 32C24.8366 32 32 24.8366 32 16C32 7.16344 24.8366 0 16 0C7.16344 0 0 7.16344 0 16C0 24.8366 7.16344 32 16 32Z" fill="#174CD3"/>
<path d="M16 11.6726L12.3668 13.7636V17.9496L16 20.0489L19.6331 17.9496V13.7636L16 11.6726Z" fill="white"/>
<path d="M5.65759 22.4806L15.7215 28.292L19.0761 22.4806H5.65759Z" fill="white"/>
<path d="M5.54116 9.68147L8.73368 15.2185L15.1229 4.14861L5.54116 9.68147Z" fill="white"/>
<path d="M12.9239 9.245H25.6898L16.1206 3.70798L12.9239 9.245Z" fill="white"/>
<path d="M20.1902 9.88517L26.5752 20.9551V9.88517H20.1902Z" fill="white"/>
<path d="M23.258 16.503L16.8771 27.5729L26.4505 22.04L23.258 16.503Z" fill="white"/>
<path d="M5.42478 21.8363H11.8098L5.42478 10.7664V21.8363Z" fill="white"/>
<rect x="192" y="8" width="52" height="20" rx="10" fill="#DCDFEA"/>
<path d="M203.669 14.146H201.205V22H203.68C206.408 22 207.904 20.46 207.904 17.985C207.904 15.598 206.408 14.146 203.669 14.146ZM202.822 20.625V15.521H203.68C205.253 15.521 206.254 16.324 206.254 17.985C206.254 19.756 205.253 20.625 203.669 20.625H202.822ZM213.437 13.959C210.808 13.959 209.301 15.884 209.301 18.073C209.301 20.262 210.808 22.187 213.437 22.187C216.066 22.187 217.562 20.262 217.562 18.073C217.562 15.884 216.066 13.959 213.437 13.959ZM210.918 18.073C210.918 16.566 211.853 15.334 213.437 15.334C214.999 15.334 215.945 16.566 215.945 18.073C215.945 19.58 214.999 20.812 213.437 20.812C211.853 20.812 210.918 19.58 210.918 18.073ZM226.675 19.492H225.08C224.761 20.306 224.123 20.768 222.979 20.768C221.604 20.768 220.592 19.635 220.592 18.084C220.592 16.5 221.593 15.378 222.979 15.378C223.958 15.378 224.684 15.752 225.091 16.654H226.686C226.191 14.993 224.948 14.003 222.979 14.003C220.647 14.003 218.975 15.664 218.975 18.084C218.975 20.526 220.636 22.143 222.957 22.143C224.893 22.143 226.257 21.142 226.675 19.492ZM229.956 19.437H228.295C228.471 21.318 229.835 22.187 231.551 22.187C233.025 22.187 234.466 21.461 234.466 19.855C234.466 18.183 233.168 17.798 231.826 17.402C230.825 17.105 230.231 16.819 230.231 16.214C230.231 15.565 230.77 15.29 231.452 15.29C232.244 15.29 232.662 15.664 232.805 16.478H234.422C234.246 14.674 233.069 13.959 231.496 13.959C230.055 13.959 228.625 14.663 228.636 16.159C228.636 17.754 229.923 18.216 231.221 18.601C232.222 18.909 232.871 19.096 232.871 19.844C232.871 20.515 232.387 20.845 231.551 20.845C230.671 20.845 230.022 20.328 229.956 19.437Z" fill="#4A5578"/>
<path d="M56.706 18.5H53.664C53.222 21.256 51.376 22.842 48.828 22.842C45.448 22.842 43.238 20.216 43.238 16.03C43.238 11.896 45.37 9.218 48.646 9.218C51.298 9.218 53.04 10.778 53.534 13.586H56.576C55.978 9.478 52.676 6.8 48.542 6.8C43.576 6.8 40.144 10.908 40.144 16.03C40.144 21.308 43.654 25.26 48.62 25.26C52.754 25.26 56.082 22.608 56.706 18.5ZM70.7945 18.5C70.7945 14.99 68.3765 11.74 64.4245 11.74C60.4725 11.74 58.0545 14.99 58.0545 18.5C58.0545 22.01 60.4725 25.26 64.4245 25.26C68.3765 25.26 70.7945 22.01 70.7945 18.5ZM61.0445 18.5C61.0445 15.718 62.2665 13.846 64.4245 13.846C66.6085 13.846 67.8305 15.718 67.8305 18.5C67.8305 21.256 66.6085 23.154 64.4245 23.154C62.2665 23.154 61.0445 21.256 61.0445 18.5ZM75.8739 25V17.2C75.8739 15.068 76.7319 13.872 78.4739 13.872C80.2159 13.872 81.0739 14.964 81.0739 17.382V25H83.9079V16.55C83.9079 13.69 82.5039 11.74 79.6439 11.74C77.7459 11.74 76.3939 12.728 75.8479 14.548H75.7959V12H73.0399V25H75.8739ZM96.956 21.256C96.956 19.306 96.02 17.902 93.212 17.278L91.444 16.888C89.78 16.498 89.052 16.212 89.052 15.354C89.052 14.392 90.014 13.846 91.262 13.846C92.536 13.846 93.706 14.34 93.888 15.848H96.696C96.514 13.482 94.33 11.74 91.262 11.74C88.48 11.74 86.192 13.222 86.192 15.588C86.192 17.642 87.7 18.864 90.248 19.41L92.016 19.8C93.524 20.138 94.122 20.736 94.122 21.464C94.122 22.582 92.926 23.154 91.652 23.154C90.248 23.154 88.922 22.218 88.766 20.554H85.958C86.14 22.946 88.064 25.26 91.626 25.26C94.616 25.26 96.956 23.778 96.956 21.256ZM105.724 25V22.894H104.112C103.124 22.894 102.734 22.582 102.734 21.49V14.106H105.828V12H102.734V9.036H99.9001V12H97.7421V14.106H99.9001V22.14C99.9001 24.038 100.94 25 102.968 25H105.724ZM118.612 20.97H115.778C115.466 22.01 114.738 23.154 113.048 23.154C111.072 23.154 109.694 21.776 109.564 19.41H118.846C119.236 14.886 116.688 11.74 112.814 11.74C108.94 11.74 106.73 14.912 106.73 18.5C106.73 22.088 108.992 25.26 112.866 25.26C116.038 25.26 118.066 23.544 118.612 20.97ZM112.814 13.846C114.712 13.846 115.83 15.198 116.012 17.304H109.59C109.772 15.198 110.916 13.846 112.814 13.846ZM121.081 25H123.915V7.06H121.081V25ZM126.883 25H129.717V7.06H126.883V25ZM140.408 22.452H140.486V25H143.216V17.018C143.216 13.508 141.11 11.74 137.808 11.74C134.454 11.74 132.426 13.586 132.322 16.108H135.156C135.234 14.652 136.17 13.846 137.756 13.846C139.394 13.846 140.382 14.756 140.382 16.498V16.888L137.08 17.226C134.194 17.538 131.854 18.526 131.854 21.204C131.854 23.57 133.752 25.26 136.456 25.26C138.406 25.26 139.862 24.246 140.408 22.452ZM134.844 21.23C134.844 19.982 135.832 19.358 137.548 19.176L140.382 18.864V19.306C140.382 21.776 139.212 23.154 137.184 23.154C135.936 23.154 134.844 22.452 134.844 21.23ZM152.636 25V22.894H151.024C150.036 22.894 149.646 22.582 149.646 21.49V14.106H152.74V12H149.646V9.036H146.812V12H144.654V14.106H146.812V22.14C146.812 24.038 147.852 25 149.88 25H152.636ZM157.486 9.946V7.06H154.47V9.946H157.486ZM157.382 25V12H154.548V25H157.382ZM172.362 18.5C172.362 14.99 169.944 11.74 165.992 11.74C162.04 11.74 159.622 14.99 159.622 18.5C159.622 22.01 162.04 25.26 165.992 25.26C169.944 25.26 172.362 22.01 172.362 18.5ZM162.612 18.5C162.612 15.718 163.834 13.846 165.992 13.846C168.176 13.846 169.398 15.718 169.398 18.5C169.398 21.256 168.176 23.154 165.992 23.154C163.834 23.154 162.612 21.256 162.612 18.5ZM177.441 25V17.2C177.441 15.068 178.299 13.872 180.041 13.872C181.783 13.872 182.641 14.964 182.641 17.382V25H185.475V16.55C185.475 13.69 184.071 11.74 181.211 11.74C179.313 11.74 177.961 12.728 177.415 14.548H177.363V12H174.607V25H177.441Z" fill="#174CD3"/>
</svg>
