<svg width="500" height="57" viewBox="0 0 500 57" fill="none" xmlns="http://www.w3.org/2000/svg">
<path d="M28.191 56.382C43.7604 56.382 56.382 43.7604 56.382 28.191C56.382 12.6215 43.7604 0 28.191 0C12.6215 0 0 12.6215 0 28.191C0 43.7604 12.6215 56.382 28.191 56.382Z" fill="#1552EF"/>
<path d="M28.1913 20.5666L21.7899 24.2507V31.6262L28.1913 35.325L34.5927 31.6262V24.2507L28.1913 20.5666Z" fill="white"/>
<path d="M9.96857 39.6095L27.7005 49.8488L33.6112 39.6095H9.96857Z" fill="white"/>
<path d="M9.7633 17.0582L15.3883 26.814L26.6457 7.30959L9.7633 17.0582Z" fill="white"/>
<path d="M22.771 16.2891H45.2637L28.4033 6.53324L22.771 16.2891Z" fill="white"/>
<path d="M35.5739 17.4172L46.824 36.9216V17.4172H35.5739Z" fill="white"/>
<path d="M40.9792 29.0773L29.7365 48.5817L46.6042 38.8331L40.9792 29.0773Z" fill="white"/>
<path d="M9.5582 38.4743H20.8082L9.5582 18.9699V38.4743Z" fill="white"/>
<path d="M412.668 34.189C412.668 24.9136 420.187 17.3944 429.463 17.3944H483.205C492.481 17.3944 500 24.9136 500 34.189C500 43.4645 492.481 50.9837 483.205 50.9837H429.463C420.187 50.9837 412.668 43.4645 412.668 34.189Z" fill="#EBEEF7"/>
<path d="M431.089 26.9625H426.789V40.6669H431.108C435.868 40.6669 438.478 37.9798 438.478 33.6612C438.478 29.4961 435.868 26.9625 431.089 26.9625ZM429.611 38.2677V29.3618H431.108C433.853 29.3618 435.599 30.7629 435.599 33.6612C435.599 36.7514 433.853 38.2677 431.089 38.2677H429.611Z" fill="#5A5D6B"/>
<path d="M448.133 26.6362C443.545 26.6362 440.916 29.9952 440.916 33.8147C440.916 37.6343 443.545 40.9932 448.133 40.9932C452.72 40.9932 455.33 37.6343 455.33 33.8147C455.33 29.9952 452.72 26.6362 448.133 26.6362ZM443.737 33.8147C443.737 31.1852 445.369 29.0355 448.133 29.0355C450.858 29.0355 452.509 31.1852 452.509 33.8147C452.509 36.4443 450.858 38.594 448.133 38.594C445.369 38.594 443.737 36.4443 443.737 33.8147Z" fill="#5A5D6B"/>
<path d="M471.232 36.2907H468.448C467.892 37.7111 466.779 38.5172 464.782 38.5172C462.383 38.5172 460.617 36.5403 460.617 33.8339C460.617 31.07 462.364 29.1122 464.782 29.1122C466.491 29.1122 467.757 29.7648 468.468 31.3387H471.251C470.387 28.4405 468.218 26.713 464.782 26.713C460.713 26.713 457.796 29.6113 457.796 33.8339C457.796 38.095 460.694 40.9165 464.744 40.9165C468.122 40.9165 470.502 39.1698 471.232 36.2907Z" fill="#5A5D6B"/>
<path d="M476.956 36.1948H474.057C474.365 39.4769 476.745 40.9932 479.739 40.9932C482.311 40.9932 484.825 39.7264 484.825 36.9241C484.825 34.0067 482.56 33.3349 480.219 32.6439C478.472 32.1257 477.436 31.6266 477.436 30.571C477.436 29.4385 478.376 28.9587 479.566 28.9587C480.948 28.9587 481.677 29.6113 481.927 31.0316H484.748C484.441 27.8838 482.388 26.6362 479.643 26.6362C477.128 26.6362 474.633 27.8646 474.652 30.475C474.652 33.2581 476.898 34.0643 479.163 34.736C480.91 35.2735 482.042 35.5998 482.042 36.905C482.042 38.0758 481.198 38.6516 479.739 38.6516C478.203 38.6516 477.071 37.7495 476.956 36.1948Z" fill="#5A5D6B"/>
<path d="M112.989 34.1891H106.252C105.274 40.2927 101.185 43.8052 95.5422 43.8052C88.0566 43.8052 83.1622 37.9894 83.1622 28.7188C83.1622 19.5633 87.8839 13.6324 95.1392 13.6324C101.012 13.6324 104.87 17.0873 105.965 23.3061H112.702C111.377 14.2083 104.064 8.27735 94.9088 8.27735C83.9108 8.27735 76.31 17.3752 76.31 28.7188C76.31 40.4079 84.0835 49.1603 95.0816 49.1603C104.237 49.1603 111.608 43.287 112.989 34.1891Z" fill="#1552EF"/>
<path d="M144.191 34.1891C144.191 26.4156 138.836 19.2178 130.084 19.2178C121.331 19.2178 115.976 26.4156 115.976 34.1891C115.976 41.9626 121.331 49.1603 130.084 49.1603C138.836 49.1603 144.191 41.9626 144.191 34.1891ZM122.598 34.1891C122.598 28.0278 125.304 23.882 130.084 23.882C134.92 23.882 137.627 28.0278 137.627 34.1891C137.627 40.2927 134.92 44.4962 130.084 44.4962C125.304 44.4962 122.598 40.2927 122.598 34.1891Z" fill="#1552EF"/>
<path d="M155.44 48.5845V31.31C155.44 26.5883 157.34 23.9395 161.198 23.9395C165.056 23.9395 166.956 26.358 166.956 31.7131V48.5845H173.233V29.8704C173.233 23.5365 170.123 19.2178 163.789 19.2178C159.586 19.2178 156.592 21.406 155.383 25.4367H155.267V19.7937H149.164V48.5845H155.44Z" fill="#1552EF"/>
<path d="M202.13 40.2927C202.13 35.9741 200.057 32.8647 193.839 31.4827L189.923 30.619C186.238 29.7553 184.625 29.1219 184.625 27.2217C184.625 25.0912 186.756 23.882 189.52 23.882C192.341 23.882 194.933 24.976 195.336 28.3157H201.554C201.151 23.0758 196.315 19.2178 189.52 19.2178C183.359 19.2178 178.291 22.5 178.291 27.7399C178.291 32.2889 181.631 34.9952 187.274 36.2044L191.19 37.0681C194.529 37.8167 195.854 39.1411 195.854 40.7534C195.854 43.2294 193.205 44.4962 190.384 44.4962C187.274 44.4962 184.338 42.4232 183.992 38.738H177.773C178.176 44.0355 182.437 49.1603 190.326 49.1603C196.948 49.1603 202.13 45.8781 202.13 40.2927Z" fill="#1552EF"/>
<path d="M221.549 48.5845V43.9204H217.979C215.791 43.9204 214.927 43.2294 214.927 40.8109V24.4578H221.779V19.7937H214.927V13.2294H208.65V19.7937H203.871V24.4578H208.65V42.2505C208.65 46.4539 210.954 48.5845 215.445 48.5845H221.549Z" fill="#1552EF"/>
<path d="M250.092 39.6593H243.816C243.125 41.9626 241.512 44.4962 237.77 44.4962C233.393 44.4962 230.342 41.4443 230.054 36.2044H250.61C251.474 26.1852 245.831 19.2178 237.251 19.2178C228.672 19.2178 223.777 26.2428 223.777 34.1891C223.777 42.1353 228.787 49.1603 237.367 49.1603C244.392 49.1603 248.883 45.3599 250.092 39.6593ZM237.251 23.882C241.455 23.882 243.931 26.8762 244.334 31.5403H230.111C230.514 26.8762 233.048 23.882 237.251 23.882Z" fill="#1552EF"/>
<path d="M255.559 48.5845H261.836V8.85317H255.559V48.5845Z" fill="#1552EF"/>
<path d="M268.409 48.5845H274.686V8.85317H268.409V48.5845Z" fill="#1552EF"/>
<path d="M298.361 42.9415H298.534V48.5845H304.58V30.9069C304.58 23.1334 299.916 19.2178 292.603 19.2178C285.175 19.2178 280.684 23.3061 280.453 28.8916H286.73C286.902 25.667 288.975 23.882 292.488 23.882C296.116 23.882 298.304 25.8973 298.304 29.7553V30.619L290.991 31.3676C284.599 32.0585 279.417 34.2466 279.417 40.1776C279.417 45.4175 283.62 49.1603 289.609 49.1603C293.927 49.1603 297.152 46.9146 298.361 42.9415ZM286.039 40.2351C286.039 37.4712 288.227 36.0893 292.027 35.6862L298.304 34.9952V35.9741C298.304 41.4443 295.712 44.4962 291.221 44.4962C288.457 44.4962 286.039 42.9415 286.039 40.2351Z" fill="#1552EF"/>
<path d="M325.443 48.5845V43.9204H321.873C319.685 43.9204 318.821 43.2294 318.821 40.8109V24.4578H325.673V19.7937H318.821V13.2294H312.545V19.7937H307.765V24.4578H312.545V42.2505C312.545 46.4539 314.848 48.5845 319.339 48.5845H325.443Z" fill="#1552EF"/>
<path d="M336.184 15.2447V8.85317H329.505V15.2447H336.184ZM335.954 48.5845V19.7937H329.678V48.5845H335.954Z" fill="#1552EF"/>
<path d="M369.13 34.1891C369.13 26.4156 363.775 19.2178 355.023 19.2178C346.27 19.2178 340.915 26.4156 340.915 34.1891C340.915 41.9626 346.27 49.1603 355.023 49.1603C363.775 49.1603 369.13 41.9626 369.13 34.1891ZM347.537 34.1891C347.537 28.0278 350.244 23.882 355.023 23.882C359.86 23.882 362.566 28.0278 362.566 34.1891C362.566 40.2927 359.86 44.4962 355.023 44.4962C350.244 44.4962 347.537 40.2927 347.537 34.1891Z" fill="#1552EF"/>
<path d="M380.379 48.5845V31.31C380.379 26.5883 382.28 23.9395 386.138 23.9395C389.996 23.9395 391.896 26.358 391.896 31.7131V48.5845H398.172V29.8704C398.172 23.5365 395.063 19.2178 388.729 19.2178C384.525 19.2178 381.531 21.406 380.322 25.4367H380.207V19.7937H374.103V48.5845H380.379Z" fill="#1552EF"/>
</svg>
