<svg width="500" height="56" viewBox="0 0 500 56" fill="none" xmlns="http://www.w3.org/2000/svg">
<path d="M27.7205 55.441C43.0301 55.441 55.441 43.0301 55.441 27.7205C55.441 12.4109 43.0301 0 27.7205 0C12.4109 0 0 12.4109 0 27.7205C0 43.0301 12.4109 55.441 27.7205 55.441Z" fill="#1552EF"/>
<path d="M27.7209 20.2234L21.4264 23.846V31.0984L27.7209 34.7354L34.0155 31.0984V23.846L27.7209 20.2234Z" fill="white"/>
<path d="M9.80236 38.9484L27.2384 49.0168L33.0504 38.9484H9.80236Z" fill="white"/>
<path d="M9.60048 16.7734L15.1316 26.3665L26.2011 7.18758L9.60048 16.7734Z" fill="white"/>
<path d="M22.3911 16.0173H44.5085L27.9295 6.4242L22.3911 16.0173Z" fill="white"/>
<path d="M34.9805 17.1264L46.0428 36.3054V17.1264H34.9805Z" fill="white"/>
<path d="M40.2954 28.5919L29.2403 47.7708L45.8265 38.185L40.2954 28.5919Z" fill="white"/>
<path d="M9.39889 37.8322H20.4612L9.39889 18.6533V37.8322Z" fill="white"/>
<path d="M406.137 34.1671C406.137 24.198 414.219 16.1166 424.188 16.1166H481.949C491.918 16.1166 500 24.198 500 34.1671C500 44.1361 491.918 52.2176 481.949 52.2176H424.188C414.219 52.2176 406.137 44.1361 406.137 34.1671Z" fill="#3E4352"/>
<path d="M425.936 26.4002H421.315V41.1294H425.956C431.072 41.1294 433.878 38.2413 433.878 33.5998C433.878 29.1232 431.072 26.4002 425.936 26.4002ZM424.347 38.5508V28.9788H425.956C428.906 28.9788 430.783 30.4847 430.783 33.5998C430.783 36.9211 428.906 38.5508 425.936 38.5508H424.347Z" fill="#E8EBFB"/>
<path d="M444.254 26.0495C439.324 26.0495 436.497 29.6596 436.497 33.7648C436.497 37.87 439.324 41.4801 444.254 41.4801C449.184 41.4801 451.99 37.87 451.99 33.7648C451.99 29.6596 449.184 26.0495 444.254 26.0495ZM439.53 33.7648C439.53 30.9386 441.283 28.6281 444.254 28.6281C447.183 28.6281 448.957 30.9386 448.957 33.7648C448.957 36.591 447.183 38.9015 444.254 38.9015C441.283 38.9015 439.53 36.591 439.53 33.7648Z" fill="#E8EBFB"/>
<path d="M469.08 36.426H466.089C465.491 37.9525 464.294 38.8189 462.149 38.8189C459.57 38.8189 457.672 36.6941 457.672 33.7854C457.672 30.8148 459.55 28.7106 462.149 28.7106C463.985 28.7106 465.346 29.412 466.11 31.1036H469.101C468.173 27.9886 465.841 26.132 462.149 26.132C457.775 26.132 454.64 29.247 454.64 33.7854C454.64 38.3651 457.755 41.3976 462.108 41.3976C465.738 41.3976 468.296 39.5203 469.08 36.426Z" fill="#E8EBFB"/>
<path d="M475.232 36.3228H472.117C472.448 39.8504 475.006 41.4801 478.224 41.4801C480.988 41.4801 483.69 40.1186 483.69 37.1067C483.69 33.9711 481.256 33.2491 478.739 32.5064C476.862 31.9494 475.748 31.4131 475.748 30.2785C475.748 29.0613 476.759 28.5456 478.038 28.5456C479.523 28.5456 480.307 29.247 480.575 30.7736H483.608C483.278 27.3904 481.071 26.0495 478.121 26.0495C475.418 26.0495 472.736 27.3697 472.757 30.1753C472.757 33.1665 475.171 34.033 477.605 34.755C479.482 35.3326 480.699 35.6833 480.699 37.0861C480.699 38.3445 479.792 38.9633 478.224 38.9633C476.573 38.9633 475.356 37.9938 475.232 36.3228Z" fill="#E8EBFB"/>
<path d="M107.901 34.1671H100.66C99.6081 40.7272 95.214 44.5023 89.1491 44.5023C81.1037 44.5023 75.8432 38.2517 75.8432 28.2878C75.8432 18.4477 80.918 12.0732 88.7158 12.0732C95.0284 12.0732 99.1749 15.7865 100.351 22.4703H107.592C106.168 12.6921 98.3084 6.31769 88.4683 6.31769C76.6478 6.31769 68.4786 16.0959 68.4786 28.2878C68.4786 40.851 76.8334 50.2579 88.654 50.2579C98.4941 50.2579 106.416 43.9453 107.901 34.1671Z" fill="white"/>
<path d="M139.579 34.1671C139.579 25.8123 133.824 18.0763 124.417 18.0763C115.01 18.0763 109.254 25.8123 109.254 34.1671C109.254 42.5219 115.01 50.2579 124.417 50.2579C133.824 50.2579 139.579 42.5219 139.579 34.1671ZM116.371 34.1671C116.371 27.5451 119.28 23.0892 124.417 23.0892C129.615 23.0892 132.524 27.5451 132.524 34.1671C132.524 40.7272 129.615 45.245 124.417 45.245C119.28 45.245 116.371 40.7272 116.371 34.1671Z" fill="white"/>
<path d="M149.813 49.639V31.0727C149.813 25.9979 151.855 23.1511 156.002 23.1511C160.148 23.1511 162.19 25.7504 162.19 31.5059V49.639H168.936V29.5255C168.936 22.7179 165.594 18.0763 158.787 18.0763C154.269 18.0763 151.051 20.4281 149.751 24.7602H149.627V18.6952H143.067V49.639H149.813Z" fill="white"/>
<path d="M198.138 40.7272C198.138 36.0856 195.91 32.7437 189.226 31.2584L185.018 30.3301C181.057 29.4018 179.324 28.721 179.324 26.6787C179.324 24.3889 181.614 23.0892 184.585 23.0892C187.617 23.0892 190.402 24.2651 190.835 27.8546H197.519C197.086 22.2228 191.887 18.0763 184.585 18.0763C177.963 18.0763 172.516 21.6039 172.516 27.2357C172.516 32.1248 176.106 35.0335 182.171 36.3332L186.379 37.2615C189.969 38.066 191.392 39.4894 191.392 41.2223C191.392 43.8835 188.545 45.245 185.513 45.245C182.171 45.245 179.015 43.017 178.643 39.0562H171.959C172.393 44.7499 176.972 50.2579 185.451 50.2579C192.568 50.2579 198.138 46.7303 198.138 40.7272Z" fill="white"/>
<path d="M217.152 49.639V44.6261H213.315C210.963 44.6261 210.035 43.8835 210.035 41.2842V23.7081H217.399V18.6952H210.035V11.64H203.289V18.6952H198.152V23.7081H203.289V42.8314C203.289 47.3492 205.765 49.639 210.592 49.639H217.152Z" fill="white"/>
<path d="M245.973 40.0464H239.227C238.485 42.5219 236.752 45.245 232.729 45.245C228.026 45.245 224.746 41.9649 224.436 36.3332H246.53C247.458 25.5647 241.393 18.0763 232.172 18.0763C222.951 18.0763 217.691 25.6266 217.691 34.1671C217.691 42.7076 223.075 50.2579 232.296 50.2579C239.846 50.2579 244.674 46.1733 245.973 40.0464ZM232.172 23.0892C236.69 23.0892 239.351 26.3074 239.784 31.3203H224.498C224.931 26.3074 227.654 23.0892 232.172 23.0892Z" fill="white"/>
<path d="M249.992 49.639H256.738V6.93656H249.992V49.639Z" fill="white"/>
<path d="M261.947 49.639H268.693V6.93656H261.947V49.639Z" fill="white"/>
<path d="M292.282 43.574H292.468V49.639H298.966V30.6395C298.966 22.2847 293.953 18.0763 286.093 18.0763C278.11 18.0763 273.283 22.4703 273.035 28.4734H279.781C279.966 25.0077 282.194 23.0892 285.969 23.0892C289.868 23.0892 292.22 25.2553 292.22 29.4018V30.3301L284.36 31.1346C277.491 31.8773 271.921 34.229 271.921 40.6034C271.921 46.2352 276.439 50.2579 282.875 50.2579C287.517 50.2579 290.982 47.8443 292.282 43.574ZM279.038 40.6653C279.038 37.6947 281.39 36.2094 285.474 35.7762L292.22 35.0335V36.0856C292.22 41.9649 289.435 45.245 284.608 45.245C281.637 45.245 279.038 43.574 279.038 40.6653Z" fill="white"/>
<path d="M319.532 49.639V44.6261H315.695C313.344 44.6261 312.415 43.8835 312.415 41.2842V23.7081H319.78V18.6952H312.415V11.64H305.67V18.6952H300.533V23.7081H305.67V42.8314C305.67 47.3492 308.145 49.639 312.972 49.639H319.532Z" fill="white"/>
<path d="M329.22 13.8061V6.93656H322.041V13.8061H329.22ZM328.973 49.639V18.6952H322.227V49.639H328.973Z" fill="white"/>
<path d="M362.773 34.1671C362.773 25.8123 357.018 18.0763 347.611 18.0763C338.204 18.0763 332.449 25.8123 332.449 34.1671C332.449 42.5219 338.204 50.2579 347.611 50.2579C357.018 50.2579 362.773 42.5219 362.773 34.1671ZM339.566 34.1671C339.566 27.5451 342.474 23.0892 347.611 23.0892C352.809 23.0892 355.718 27.5451 355.718 34.1671C355.718 40.7272 352.809 45.245 347.611 45.245C342.474 45.245 339.566 40.7272 339.566 34.1671Z" fill="white"/>
<path d="M373.007 49.639V31.0727C373.007 25.9979 375.049 23.1511 379.196 23.1511C383.342 23.1511 385.385 25.7504 385.385 31.5059V49.639H392.13V29.5255C392.13 22.7179 388.788 18.0763 381.981 18.0763C377.463 18.0763 374.245 20.4281 372.945 24.7602H372.821V18.6952H366.261V49.639H373.007Z" fill="white"/>
</svg>
