<svg width="800" height="502" viewBox="0 0 800 502" fill="none" xmlns="http://www.w3.org/2000/svg">
<rect width="800" height="502" fill="#131327"/>
<rect x="167.25" y="40.25" width="459.5" height="255.5" rx="7.75" stroke="#4B5563" stroke-width="0.5"/>
<path d="M190.175 69H188.367V57.96H191.903L194.511 68.648L197.119 57.96H200.655V69H198.847V58.312L196.255 69H192.767L190.175 58.312V69ZM209.834 66.52C209.498 68.104 208.25 69.16 206.298 69.16C203.914 69.16 202.522 67.208 202.522 65C202.522 62.792 203.882 60.84 206.266 60.84C208.65 60.84 210.218 62.776 209.978 65.56H204.266C204.346 67.016 205.194 67.864 206.41 67.864C207.45 67.864 207.898 67.16 208.09 66.52H209.834ZM206.266 62.136C205.098 62.136 204.394 62.968 204.282 64.264H208.234C208.122 62.968 207.434 62.136 206.266 62.136ZM215.661 69H213.965C212.717 69 212.077 68.408 212.077 67.24V62.296H210.749V61H212.077V59.176H213.821V61H215.725V62.296H213.821V66.84C213.821 67.512 214.061 67.704 214.669 67.704H215.661V69ZM221.91 67.432C221.574 68.536 220.678 69.16 219.478 69.16C217.814 69.16 216.646 68.12 216.646 66.664C216.646 65.016 218.086 64.408 219.862 64.216L221.894 64.008V63.768C221.894 62.696 221.286 62.136 220.278 62.136C219.302 62.136 218.726 62.632 218.678 63.528H216.934C216.998 61.976 218.246 60.84 220.31 60.84C222.342 60.84 223.638 61.928 223.638 64.088V69H221.958V67.432H221.91ZM218.486 66.68C218.486 67.432 219.158 67.864 219.926 67.864C221.174 67.864 221.894 67.016 221.894 65.496V65.224L220.15 65.416C219.094 65.528 218.486 65.912 218.486 66.68ZM232.937 68.616C232.937 70.744 231.449 71.88 229.353 71.88C227.401 71.88 225.961 71.016 225.785 69.272H227.513C227.673 70.264 228.505 70.584 229.353 70.584C230.425 70.584 231.225 70.008 231.225 68.664V67H231.177C230.793 68.104 229.865 68.84 228.649 68.84C226.521 68.84 225.289 67.08 225.289 64.84C225.289 62.6 226.521 60.84 228.649 60.84C229.865 60.84 230.793 61.56 231.177 62.664H231.225V61H232.937V68.616ZM227.129 64.84C227.129 66.536 227.897 67.544 229.209 67.544C230.521 67.544 231.289 66.536 231.289 64.84C231.289 63.128 230.521 62.136 229.209 62.136C227.897 62.136 227.129 63.128 227.129 64.84ZM236.824 69H235.08V61H236.776V62.568H236.808C237.144 61.448 237.976 60.84 239.208 60.84V62.584H238.936C237.448 62.584 236.824 63.016 236.824 64.472V69ZM245.113 67.432C244.777 68.536 243.881 69.16 242.681 69.16C241.017 69.16 239.849 68.12 239.849 66.664C239.849 65.016 241.289 64.408 243.065 64.216L245.097 64.008V63.768C245.097 62.696 244.489 62.136 243.481 62.136C242.505 62.136 241.929 62.632 241.881 63.528H240.137C240.201 61.976 241.449 60.84 243.513 60.84C245.545 60.84 246.841 61.928 246.841 64.088V69H245.161V67.432H245.113ZM241.689 66.68C241.689 67.432 242.361 67.864 243.129 67.864C244.377 67.864 245.097 67.016 245.097 65.496V65.224L243.353 65.416C242.297 65.528 241.689 65.912 241.689 66.68ZM250.62 71.72H248.908V61H250.62V62.664H250.668C251.052 61.56 251.98 60.84 253.196 60.84C255.324 60.84 256.556 62.76 256.556 65C256.556 67.24 255.372 69.16 253.196 69.16C251.98 69.16 251.052 68.424 250.668 67.32H250.62V71.72ZM250.556 65C250.556 66.696 251.292 67.864 252.636 67.864C253.964 67.864 254.716 66.696 254.716 65C254.716 63.288 253.964 62.136 252.636 62.136C251.292 62.136 250.556 63.288 250.556 65ZM260.027 69H258.283V57.96H259.979V62.568H260.011C260.347 61.448 261.179 60.84 262.347 60.84C264.107 60.84 264.971 62.04 264.971 63.8V69H263.227V64.312C263.227 62.824 262.699 62.152 261.627 62.152C260.555 62.152 260.027 62.888 260.027 64.2V69Z" fill="white"/>
<rect x="187.5" y="92.5" width="201" height="47" rx="3.5" fill="#5BC78D" fill-opacity="0.04"/>
<rect x="187.5" y="92.5" width="201" height="47" rx="3.5" stroke="#5BC78D"/>
<path d="M242.403 114H241.17C241.097 113.645 240.969 113.334 240.787 113.065C240.608 112.797 240.389 112.571 240.131 112.389C239.876 112.204 239.592 112.064 239.281 111.972C238.969 111.879 238.644 111.832 238.306 111.832C237.69 111.832 237.131 111.988 236.631 112.3C236.134 112.611 235.738 113.07 235.443 113.677C235.151 114.283 235.005 115.027 235.005 115.909C235.005 116.791 235.151 117.535 235.443 118.141C235.738 118.748 236.134 119.207 236.631 119.518C237.131 119.83 237.69 119.986 238.306 119.986C238.644 119.986 238.969 119.939 239.281 119.847C239.592 119.754 239.876 119.616 240.131 119.434C240.389 119.248 240.608 119.021 240.787 118.753C240.969 118.481 241.097 118.17 241.17 117.818H242.403C242.31 118.339 242.141 118.804 241.896 119.215C241.65 119.626 241.345 119.976 240.981 120.264C240.616 120.549 240.207 120.766 239.753 120.915C239.302 121.065 238.82 121.139 238.306 121.139C237.438 121.139 236.666 120.927 235.989 120.503C235.313 120.079 234.781 119.475 234.394 118.693C234.006 117.911 233.812 116.983 233.812 115.909C233.812 114.835 234.006 113.907 234.394 113.125C234.781 112.343 235.313 111.74 235.989 111.315C236.666 110.891 237.438 110.679 238.306 110.679C238.82 110.679 239.302 110.754 239.753 110.903C240.207 111.052 240.616 111.271 240.981 111.559C241.345 111.844 241.65 112.192 241.896 112.603C242.141 113.011 242.31 113.476 242.403 114ZM248.809 117.878V113.364H249.982V121H248.809V119.707H248.729C248.55 120.095 248.272 120.425 247.894 120.697C247.516 120.965 247.039 121.099 246.462 121.099C245.985 121.099 245.56 120.995 245.189 120.786C244.818 120.574 244.526 120.256 244.314 119.832C244.102 119.404 243.996 118.866 243.996 118.216V113.364H245.169V118.136C245.169 118.693 245.325 119.137 245.637 119.469C245.952 119.8 246.353 119.966 246.84 119.966C247.131 119.966 247.428 119.891 247.73 119.742C248.035 119.593 248.29 119.364 248.495 119.056C248.704 118.748 248.809 118.355 248.809 117.878ZM251.891 121V113.364H253.024V114.517H253.104C253.243 114.139 253.495 113.833 253.86 113.597C254.224 113.362 254.635 113.244 255.093 113.244C255.179 113.244 255.286 113.246 255.416 113.249C255.545 113.253 255.643 113.258 255.709 113.264V114.457C255.669 114.447 255.578 114.433 255.436 114.413C255.296 114.389 255.149 114.378 254.993 114.378C254.622 114.378 254.29 114.456 253.999 114.612C253.71 114.764 253.482 114.976 253.313 115.248C253.147 115.516 253.064 115.823 253.064 116.168V121H251.891ZM256.86 121V113.364H257.993V114.517H258.073C258.212 114.139 258.464 113.833 258.829 113.597C259.193 113.362 259.604 113.244 260.062 113.244C260.148 113.244 260.255 113.246 260.385 113.249C260.514 113.253 260.612 113.258 260.678 113.264V114.457C260.638 114.447 260.547 114.433 260.405 114.413C260.265 114.389 260.118 114.378 259.962 114.378C259.591 114.378 259.259 114.456 258.968 114.612C258.679 114.764 258.451 114.976 258.282 115.248C258.116 115.516 258.033 115.823 258.033 116.168V121H256.86ZM264.798 121.159C264.062 121.159 263.428 120.997 262.894 120.672C262.364 120.344 261.954 119.886 261.666 119.3C261.381 118.71 261.238 118.024 261.238 117.241C261.238 116.459 261.381 115.77 261.666 115.173C261.954 114.573 262.355 114.106 262.869 113.771C263.386 113.433 263.989 113.264 264.679 113.264C265.076 113.264 265.469 113.33 265.857 113.463C266.245 113.596 266.598 113.811 266.916 114.109C267.234 114.404 267.488 114.795 267.677 115.283C267.866 115.77 267.96 116.37 267.96 117.082V117.58H262.074V116.565H266.767C266.767 116.134 266.681 115.75 266.508 115.412C266.339 115.074 266.097 114.807 265.782 114.612C265.471 114.416 265.103 114.318 264.679 114.318C264.211 114.318 263.807 114.434 263.466 114.666C263.128 114.895 262.867 115.193 262.685 115.561C262.503 115.929 262.412 116.323 262.412 116.744V117.42C262.412 117.997 262.511 118.486 262.71 118.887C262.912 119.285 263.192 119.588 263.55 119.797C263.908 120.002 264.324 120.105 264.798 120.105C265.106 120.105 265.385 120.062 265.633 119.976C265.885 119.886 266.102 119.754 266.285 119.578C266.467 119.399 266.608 119.177 266.707 118.912L267.841 119.23C267.721 119.615 267.521 119.953 267.239 120.244C266.957 120.533 266.609 120.758 266.195 120.92C265.781 121.08 265.315 121.159 264.798 121.159ZM270.678 116.406V121H269.505V113.364H270.638V114.557H270.738C270.917 114.169 271.189 113.857 271.553 113.622C271.918 113.384 272.388 113.264 272.965 113.264C273.482 113.264 273.934 113.37 274.322 113.582C274.71 113.791 275.012 114.109 275.227 114.537C275.443 114.961 275.55 115.498 275.55 116.148V121H274.377V116.227C274.377 115.627 274.221 115.16 273.91 114.825C273.598 114.487 273.171 114.318 272.627 114.318C272.252 114.318 271.918 114.399 271.623 114.562C271.331 114.724 271.101 114.961 270.932 115.273C270.763 115.584 270.678 115.962 270.678 116.406ZM280.557 121.159C279.841 121.159 279.224 120.99 278.707 120.652C278.19 120.314 277.792 119.848 277.514 119.255C277.236 118.662 277.096 117.984 277.096 117.222C277.096 116.446 277.239 115.762 277.524 115.168C277.812 114.572 278.213 114.106 278.727 113.771C279.244 113.433 279.847 113.264 280.537 113.264C281.074 113.264 281.557 113.364 281.988 113.562C282.419 113.761 282.772 114.04 283.047 114.398C283.322 114.756 283.493 115.173 283.559 115.651H282.386C282.297 115.303 282.098 114.994 281.789 114.726C281.485 114.454 281.074 114.318 280.557 114.318C280.099 114.318 279.698 114.437 279.353 114.676C279.012 114.911 278.745 115.245 278.553 115.675C278.364 116.103 278.27 116.605 278.27 117.182C278.27 117.772 278.362 118.286 278.548 118.723C278.737 119.161 279.002 119.5 279.343 119.742C279.688 119.984 280.093 120.105 280.557 120.105C280.861 120.105 281.138 120.052 281.387 119.946C281.635 119.84 281.846 119.688 282.018 119.489C282.191 119.29 282.313 119.051 282.386 118.773H283.559C283.493 119.223 283.329 119.629 283.067 119.991C282.809 120.349 282.466 120.634 282.038 120.846C281.614 121.055 281.12 121.159 280.557 121.159ZM285.79 123.864C285.591 123.864 285.414 123.847 285.258 123.814C285.103 123.784 284.995 123.754 284.935 123.724L285.233 122.69C285.518 122.763 285.77 122.79 285.989 122.77C286.208 122.75 286.402 122.652 286.571 122.477C286.743 122.304 286.901 122.024 287.043 121.636L287.262 121.04L284.438 113.364H285.711L287.819 119.449H287.898L290.006 113.364H291.279L288.037 122.114C287.892 122.508 287.711 122.835 287.496 123.093C287.28 123.355 287.03 123.549 286.745 123.675C286.463 123.801 286.145 123.864 285.79 123.864ZM297.458 110.818V121H296.285V110.818H297.458ZM301.614 121.179C301.131 121.179 300.691 121.088 300.297 120.906C299.903 120.72 299.589 120.453 299.357 120.105C299.125 119.754 299.009 119.33 299.009 118.832C299.009 118.395 299.096 118.04 299.268 117.768C299.44 117.493 299.671 117.278 299.959 117.122C300.247 116.966 300.565 116.85 300.913 116.774C301.265 116.695 301.618 116.632 301.972 116.585C302.436 116.526 302.813 116.481 303.101 116.451C303.393 116.418 303.605 116.363 303.737 116.287C303.873 116.211 303.941 116.078 303.941 115.889V115.849C303.941 115.359 303.807 114.978 303.538 114.706C303.273 114.434 302.871 114.298 302.33 114.298C301.77 114.298 301.331 114.421 301.013 114.666C300.695 114.911 300.471 115.173 300.342 115.452L299.228 115.054C299.427 114.59 299.692 114.229 300.024 113.97C300.358 113.708 300.723 113.526 301.117 113.423C301.515 113.317 301.906 113.264 302.291 113.264C302.536 113.264 302.818 113.294 303.136 113.354C303.457 113.41 303.767 113.528 304.065 113.707C304.367 113.886 304.617 114.156 304.816 114.517C305.015 114.878 305.114 115.362 305.114 115.969V121H303.941V119.966H303.882C303.802 120.132 303.669 120.309 303.484 120.498C303.298 120.687 303.051 120.848 302.743 120.98C302.435 121.113 302.059 121.179 301.614 121.179ZM301.793 120.125C302.257 120.125 302.649 120.034 302.967 119.852C303.288 119.669 303.53 119.434 303.693 119.146C303.858 118.857 303.941 118.554 303.941 118.236V117.162C303.891 117.222 303.782 117.276 303.613 117.326C303.447 117.372 303.255 117.414 303.036 117.45C302.821 117.483 302.61 117.513 302.405 117.54C302.203 117.563 302.039 117.583 301.913 117.599C301.608 117.639 301.323 117.704 301.058 117.793C300.796 117.879 300.584 118.01 300.421 118.186C300.262 118.358 300.183 118.594 300.183 118.892C300.183 119.3 300.333 119.608 300.635 119.817C300.94 120.022 301.326 120.125 301.793 120.125ZM307.498 123.864C307.299 123.864 307.122 123.847 306.966 123.814C306.81 123.784 306.703 123.754 306.643 123.724L306.941 122.69C307.226 122.763 307.478 122.79 307.697 122.77C307.916 122.75 308.11 122.652 308.279 122.477C308.451 122.304 308.609 122.024 308.751 121.636L308.97 121.04L306.146 113.364H307.419L309.527 119.449H309.606L311.714 113.364H312.987L309.745 122.114C309.6 122.508 309.419 122.835 309.203 123.093C308.988 123.355 308.738 123.549 308.453 123.675C308.171 123.801 307.853 123.864 307.498 123.864ZM317.224 121.159C316.488 121.159 315.853 120.997 315.32 120.672C314.789 120.344 314.38 119.886 314.092 119.3C313.807 118.71 313.664 118.024 313.664 117.241C313.664 116.459 313.807 115.77 314.092 115.173C314.38 114.573 314.781 114.106 315.295 113.771C315.812 113.433 316.415 113.264 317.104 113.264C317.502 113.264 317.895 113.33 318.283 113.463C318.671 113.596 319.023 113.811 319.342 114.109C319.66 114.404 319.913 114.795 320.102 115.283C320.291 115.77 320.386 116.37 320.386 117.082V117.58H314.499V116.565H319.193C319.193 116.134 319.106 115.75 318.934 115.412C318.765 115.074 318.523 114.807 318.208 114.612C317.897 114.416 317.529 114.318 317.104 114.318C316.637 114.318 316.233 114.434 315.891 114.666C315.553 114.895 315.293 115.193 315.111 115.561C314.929 115.929 314.837 116.323 314.837 116.744V117.42C314.837 117.997 314.937 118.486 315.136 118.887C315.338 119.285 315.618 119.588 315.976 119.797C316.334 120.002 316.75 120.105 317.224 120.105C317.532 120.105 317.81 120.062 318.059 119.976C318.311 119.886 318.528 119.754 318.71 119.578C318.893 119.399 319.033 119.177 319.133 118.912L320.266 119.23C320.147 119.615 319.947 119.953 319.665 120.244C319.383 120.533 319.035 120.758 318.621 120.92C318.206 121.08 317.741 121.159 317.224 121.159ZM321.93 121V113.364H323.064V114.517H323.144C323.283 114.139 323.535 113.833 323.899 113.597C324.264 113.362 324.675 113.244 325.132 113.244C325.218 113.244 325.326 113.246 325.455 113.249C325.585 113.253 325.682 113.258 325.749 113.264V114.457C325.709 114.447 325.618 114.433 325.475 114.413C325.336 114.389 325.189 114.378 325.033 114.378C324.662 114.378 324.33 114.456 324.038 114.612C323.75 114.764 323.521 114.976 323.352 115.248C323.187 115.516 323.104 115.823 323.104 116.168V121H321.93ZM330.756 121V110.818H331.989V119.906H336.722V121H330.756ZM341.149 110.818V121H339.916V112.111H339.856L337.371 113.761V112.509L339.916 110.818H341.149Z" fill="white"/>
<rect x="405.5" y="92.5" width="201" height="47" rx="3.5" fill="#FBF24B" fill-opacity="0.02"/>
<rect x="405.5" y="92.5" width="201" height="47" rx="3.5" stroke="#FBC14B"/>
<path d="M469.637 121H466.495V110.818H469.776C470.764 110.818 471.609 111.022 472.312 111.43C473.015 111.834 473.553 112.416 473.928 113.175C474.302 113.93 474.49 114.835 474.49 115.889C474.49 116.95 474.301 117.863 473.923 118.629C473.545 119.391 472.995 119.978 472.272 120.388C471.55 120.796 470.671 121 469.637 121ZM467.728 119.906H469.558C470.4 119.906 471.097 119.744 471.651 119.419C472.204 119.094 472.617 118.632 472.889 118.032C473.16 117.432 473.296 116.718 473.296 115.889C473.296 115.067 473.162 114.36 472.894 113.766C472.625 113.17 472.224 112.712 471.691 112.394C471.157 112.073 470.492 111.912 469.697 111.912H467.728V119.906ZM478.406 121.179C477.922 121.179 477.483 121.088 477.088 120.906C476.694 120.72 476.381 120.453 476.149 120.105C475.917 119.754 475.801 119.33 475.801 118.832C475.801 118.395 475.887 118.04 476.059 117.768C476.232 117.493 476.462 117.278 476.75 117.122C477.039 116.966 477.357 116.85 477.705 116.774C478.056 116.695 478.409 116.632 478.764 116.585C479.228 116.526 479.604 116.481 479.892 116.451C480.184 116.418 480.396 116.363 480.529 116.287C480.665 116.211 480.732 116.078 480.732 115.889V115.849C480.732 115.359 480.598 114.978 480.33 114.706C480.065 114.434 479.662 114.298 479.122 114.298C478.562 114.298 478.122 114.421 477.804 114.666C477.486 114.911 477.262 115.173 477.133 115.452L476.019 115.054C476.218 114.59 476.483 114.229 476.815 113.97C477.15 113.708 477.514 113.526 477.909 113.423C478.306 113.317 478.697 113.264 479.082 113.264C479.327 113.264 479.609 113.294 479.927 113.354C480.249 113.41 480.558 113.528 480.857 113.707C481.158 113.886 481.409 114.156 481.607 114.517C481.806 114.878 481.906 115.362 481.906 115.969V121H480.732V119.966H480.673C480.593 120.132 480.461 120.309 480.275 120.498C480.089 120.687 479.843 120.848 479.534 120.98C479.226 121.113 478.85 121.179 478.406 121.179ZM478.585 120.125C479.049 120.125 479.44 120.034 479.758 119.852C480.08 119.669 480.322 119.434 480.484 119.146C480.65 118.857 480.732 118.554 480.732 118.236V117.162C480.683 117.222 480.573 117.276 480.404 117.326C480.239 117.372 480.046 117.414 479.828 117.45C479.612 117.483 479.402 117.513 479.196 117.54C478.994 117.563 478.83 117.583 478.704 117.599C478.399 117.639 478.114 117.704 477.849 117.793C477.587 117.879 477.375 118.01 477.213 118.186C477.054 118.358 476.974 118.594 476.974 118.892C476.974 119.3 477.125 119.608 477.426 119.817C477.731 120.022 478.117 120.125 478.585 120.125ZM487.128 113.364V114.358H483.171V113.364H487.128ZM484.324 111.534H485.498V118.812C485.498 119.144 485.546 119.393 485.642 119.558C485.741 119.721 485.867 119.83 486.02 119.886C486.175 119.939 486.339 119.966 486.512 119.966C486.641 119.966 486.747 119.959 486.83 119.946C486.913 119.929 486.979 119.916 487.029 119.906L487.268 120.96C487.188 120.99 487.077 121.02 486.934 121.05C486.792 121.083 486.611 121.099 486.393 121.099C486.061 121.099 485.736 121.028 485.418 120.886C485.103 120.743 484.841 120.526 484.633 120.234C484.427 119.943 484.324 119.575 484.324 119.131V111.534ZM490.9 121.179C490.416 121.179 489.977 121.088 489.583 120.906C489.189 120.72 488.875 120.453 488.643 120.105C488.411 119.754 488.295 119.33 488.295 118.832C488.295 118.395 488.381 118.04 488.554 117.768C488.726 117.493 488.957 117.278 489.245 117.122C489.533 116.966 489.851 116.85 490.199 116.774C490.551 116.695 490.904 116.632 491.258 116.585C491.722 116.526 492.099 116.481 492.387 116.451C492.679 116.418 492.891 116.363 493.023 116.287C493.159 116.211 493.227 116.078 493.227 115.889V115.849C493.227 115.359 493.093 114.978 492.824 114.706C492.559 114.434 492.157 114.298 491.616 114.298C491.056 114.298 490.617 114.421 490.299 114.666C489.981 114.911 489.757 115.173 489.628 115.452L488.514 115.054C488.713 114.59 488.978 114.229 489.309 113.97C489.644 113.708 490.009 113.526 490.403 113.423C490.801 113.317 491.192 113.264 491.577 113.264C491.822 113.264 492.104 113.294 492.422 113.354C492.743 113.41 493.053 113.528 493.351 113.707C493.653 113.886 493.903 114.156 494.102 114.517C494.301 114.878 494.4 115.362 494.4 115.969V121H493.227V119.966H493.167C493.088 120.132 492.955 120.309 492.77 120.498C492.584 120.687 492.337 120.848 492.029 120.98C491.721 121.113 491.345 121.179 490.9 121.179ZM491.079 120.125C491.543 120.125 491.934 120.034 492.253 119.852C492.574 119.669 492.816 119.434 492.979 119.146C493.144 118.857 493.227 118.554 493.227 118.236V117.162C493.177 117.222 493.068 117.276 492.899 117.326C492.733 117.372 492.541 117.414 492.322 117.45C492.107 117.483 491.896 117.513 491.691 117.54C491.489 117.563 491.325 117.583 491.199 117.599C490.894 117.639 490.609 117.704 490.344 117.793C490.082 117.879 489.87 118.01 489.707 118.186C489.548 118.358 489.469 118.594 489.469 118.892C489.469 119.3 489.619 119.608 489.921 119.817C490.226 120.022 490.612 120.125 491.079 120.125ZM501.173 110.818V121H499.999V110.818H501.173ZM505.329 121.179C504.845 121.179 504.406 121.088 504.011 120.906C503.617 120.72 503.304 120.453 503.072 120.105C502.84 119.754 502.724 119.33 502.724 118.832C502.724 118.395 502.81 118.04 502.982 117.768C503.155 117.493 503.385 117.278 503.673 117.122C503.962 116.966 504.28 116.85 504.628 116.774C504.979 116.695 505.332 116.632 505.687 116.585C506.151 116.526 506.527 116.481 506.815 116.451C507.107 116.418 507.319 116.363 507.452 116.287C507.588 116.211 507.656 116.078 507.656 115.889V115.849C507.656 115.359 507.521 114.978 507.253 114.706C506.988 114.434 506.585 114.298 506.045 114.298C505.485 114.298 505.045 114.421 504.727 114.666C504.409 114.911 504.185 115.173 504.056 115.452L502.942 115.054C503.141 114.59 503.406 114.229 503.738 113.97C504.073 113.708 504.437 113.526 504.832 113.423C505.229 113.317 505.621 113.264 506.005 113.264C506.25 113.264 506.532 113.294 506.85 113.354C507.172 113.41 507.482 113.528 507.78 113.707C508.081 113.886 508.332 114.156 508.531 114.517C508.729 114.878 508.829 115.362 508.829 115.969V121H507.656V119.966H507.596C507.516 120.132 507.384 120.309 507.198 120.498C507.013 120.687 506.766 120.848 506.457 120.98C506.149 121.113 505.773 121.179 505.329 121.179ZM505.508 120.125C505.972 120.125 506.363 120.034 506.681 119.852C507.003 119.669 507.245 119.434 507.407 119.146C507.573 118.857 507.656 118.554 507.656 118.236V117.162C507.606 117.222 507.496 117.276 507.327 117.326C507.162 117.372 506.969 117.414 506.751 117.45C506.535 117.483 506.325 117.513 506.119 117.54C505.917 117.563 505.753 117.583 505.627 117.599C505.322 117.639 505.037 117.704 504.772 117.793C504.51 117.879 504.298 118.01 504.136 118.186C503.977 118.358 503.897 118.594 503.897 118.892C503.897 119.3 504.048 119.608 504.349 119.817C504.654 120.022 505.04 120.125 505.508 120.125ZM511.213 123.864C511.014 123.864 510.836 123.847 510.681 123.814C510.525 123.784 510.417 123.754 510.357 123.724L510.656 122.69C510.941 122.763 511.193 122.79 511.411 122.77C511.63 122.75 511.824 122.652 511.993 122.477C512.165 122.304 512.323 122.024 512.465 121.636L512.684 121.04L509.86 113.364H511.133L513.241 119.449H513.321L515.428 113.364H516.701L513.46 122.114C513.314 122.508 513.133 122.835 512.918 123.093C512.702 123.355 512.452 123.549 512.167 123.675C511.885 123.801 511.567 123.864 511.213 123.864ZM520.938 121.159C520.202 121.159 519.568 120.997 519.034 120.672C518.504 120.344 518.094 119.886 517.806 119.3C517.521 118.71 517.378 118.024 517.378 117.241C517.378 116.459 517.521 115.77 517.806 115.173C518.094 114.573 518.495 114.106 519.009 113.771C519.526 113.433 520.129 113.264 520.819 113.264C521.217 113.264 521.609 113.33 521.997 113.463C522.385 113.596 522.738 113.811 523.056 114.109C523.374 114.404 523.628 114.795 523.817 115.283C524.006 115.77 524.1 116.37 524.1 117.082V117.58H518.214V116.565H522.907C522.907 116.134 522.821 115.75 522.648 115.412C522.479 115.074 522.237 114.807 521.923 114.612C521.611 114.416 521.243 114.318 520.819 114.318C520.351 114.318 519.947 114.434 519.606 114.666C519.268 114.895 519.008 115.193 518.825 115.561C518.643 115.929 518.552 116.323 518.552 116.744V117.42C518.552 117.997 518.651 118.486 518.85 118.887C519.052 119.285 519.332 119.588 519.69 119.797C520.048 120.002 520.464 120.105 520.938 120.105C521.246 120.105 521.525 120.062 521.773 119.976C522.025 119.886 522.242 119.754 522.425 119.578C522.607 119.399 522.748 119.177 522.847 118.912L523.981 119.23C523.861 119.615 523.661 119.953 523.379 120.244C523.097 120.533 522.749 120.758 522.335 120.92C521.921 121.08 521.455 121.159 520.938 121.159ZM525.645 121V113.364H526.778V114.517H526.858C526.997 114.139 527.249 113.833 527.614 113.597C527.978 113.362 528.389 113.244 528.847 113.244C528.933 113.244 529.04 113.246 529.17 113.249C529.299 113.253 529.397 113.258 529.463 113.264V114.457C529.423 114.447 529.332 114.433 529.19 114.413C529.05 114.389 528.903 114.378 528.747 114.378C528.376 114.378 528.044 114.456 527.753 114.612C527.464 114.764 527.236 114.976 527.067 115.248C526.901 115.516 526.818 115.823 526.818 116.168V121H525.645ZM534.47 121V110.818H535.703V119.906H540.436V121H534.47ZM544.863 110.818V121H543.63V112.111H543.571L541.085 113.761V112.509L543.63 110.818H544.863Z" fill="white"/>
<rect x="187.5" y="236.5" width="419" height="47" rx="2.5" fill="#798EF6" fill-opacity="0.04"/>
<rect x="187.5" y="236.5" width="419" height="47" rx="2.5" stroke="#516AEC"/>
<path d="M353.267 254.818H354.738L358.199 263.27H358.318L361.778 254.818H363.25V265H362.096V257.264H361.997L358.815 265H357.701L354.52 257.264H354.42V265H353.267V254.818ZM368.525 265.159C367.789 265.159 367.154 264.997 366.62 264.672C366.09 264.344 365.681 263.886 365.392 263.3C365.107 262.71 364.965 262.024 364.965 261.241C364.965 260.459 365.107 259.77 365.392 259.173C365.681 258.573 366.082 258.106 366.596 257.771C367.113 257.433 367.716 257.264 368.405 257.264C368.803 257.264 369.196 257.33 369.583 257.463C369.971 257.596 370.324 257.811 370.642 258.109C370.961 258.404 371.214 258.795 371.403 259.283C371.592 259.77 371.686 260.37 371.686 261.082V261.58H365.8V260.565H370.493C370.493 260.134 370.407 259.75 370.235 259.412C370.066 259.074 369.824 258.807 369.509 258.612C369.197 258.416 368.829 258.318 368.405 258.318C367.938 258.318 367.534 258.434 367.192 258.666C366.854 258.895 366.594 259.193 366.412 259.561C366.229 259.929 366.138 260.323 366.138 260.744V261.42C366.138 261.997 366.238 262.486 366.436 262.887C366.639 263.285 366.919 263.588 367.277 263.797C367.635 264.002 368.051 264.105 368.525 264.105C368.833 264.105 369.111 264.062 369.36 263.976C369.612 263.886 369.829 263.754 370.011 263.578C370.193 263.399 370.334 263.177 370.434 262.912L371.567 263.23C371.448 263.615 371.247 263.953 370.966 264.244C370.684 264.533 370.336 264.758 369.922 264.92C369.507 265.08 369.042 265.159 368.525 265.159ZM376.552 257.364V258.358H372.595V257.364H376.552ZM373.748 255.534H374.922V262.812C374.922 263.144 374.97 263.393 375.066 263.558C375.165 263.721 375.291 263.83 375.444 263.886C375.599 263.939 375.763 263.966 375.936 263.966C376.065 263.966 376.171 263.959 376.254 263.946C376.337 263.929 376.403 263.916 376.453 263.906L376.691 264.96C376.612 264.99 376.501 265.02 376.358 265.05C376.216 265.083 376.035 265.099 375.816 265.099C375.485 265.099 375.16 265.028 374.842 264.886C374.527 264.743 374.265 264.526 374.057 264.234C373.851 263.943 373.748 263.575 373.748 263.131V255.534ZM380.324 265.179C379.84 265.179 379.401 265.088 379.007 264.906C378.612 264.72 378.299 264.453 378.067 264.105C377.835 263.754 377.719 263.33 377.719 262.832C377.719 262.395 377.805 262.04 377.978 261.768C378.15 261.493 378.38 261.278 378.669 261.122C378.957 260.966 379.275 260.85 379.623 260.774C379.975 260.695 380.328 260.632 380.682 260.585C381.146 260.526 381.522 260.481 381.811 260.451C382.103 260.418 382.315 260.363 382.447 260.287C382.583 260.211 382.651 260.078 382.651 259.889V259.849C382.651 259.359 382.517 258.978 382.248 258.706C381.983 258.434 381.58 258.298 381.04 258.298C380.48 258.298 380.041 258.421 379.723 258.666C379.405 258.911 379.181 259.173 379.052 259.452L377.938 259.054C378.137 258.59 378.402 258.229 378.733 257.97C379.068 257.708 379.433 257.526 379.827 257.423C380.225 257.317 380.616 257.264 381 257.264C381.246 257.264 381.527 257.294 381.846 257.354C382.167 257.41 382.477 257.528 382.775 257.707C383.077 257.886 383.327 258.156 383.526 258.517C383.725 258.878 383.824 259.362 383.824 259.969V265H382.651V263.966H382.591C382.512 264.132 382.379 264.309 382.194 264.498C382.008 264.687 381.761 264.848 381.453 264.98C381.145 265.113 380.768 265.179 380.324 265.179ZM380.503 264.125C380.967 264.125 381.358 264.034 381.677 263.852C381.998 263.669 382.24 263.434 382.402 263.146C382.568 262.857 382.651 262.554 382.651 262.236V261.162C382.601 261.222 382.492 261.276 382.323 261.326C382.157 261.372 381.965 261.414 381.746 261.45C381.531 261.483 381.32 261.513 381.115 261.54C380.913 261.563 380.749 261.583 380.623 261.599C380.318 261.639 380.033 261.704 379.768 261.793C379.506 261.879 379.294 262.01 379.131 262.186C378.972 262.358 378.893 262.594 378.893 262.892C378.893 263.3 379.043 263.608 379.345 263.817C379.65 264.022 380.036 264.125 380.503 264.125ZM388.808 268.023C388.241 268.023 387.754 267.95 387.347 267.804C386.939 267.661 386.599 267.473 386.327 267.237C386.059 267.005 385.845 266.757 385.686 266.491L386.621 265.835C386.727 265.974 386.861 266.134 387.023 266.312C387.186 266.495 387.408 266.652 387.69 266.785C387.975 266.921 388.348 266.989 388.808 266.989C389.425 266.989 389.933 266.839 390.335 266.541C390.736 266.243 390.936 265.776 390.936 265.139V263.588H390.837C390.75 263.727 390.628 263.9 390.469 264.105C390.313 264.307 390.088 264.488 389.793 264.647C389.501 264.803 389.107 264.881 388.609 264.881C387.993 264.881 387.439 264.735 386.949 264.443C386.462 264.152 386.076 263.727 385.79 263.17C385.509 262.614 385.368 261.937 385.368 261.142C385.368 260.36 385.505 259.679 385.781 259.099C386.056 258.515 386.438 258.065 386.929 257.746C387.42 257.425 387.986 257.264 388.629 257.264C389.126 257.264 389.521 257.347 389.813 257.513C390.107 257.675 390.333 257.861 390.489 258.07C390.648 258.275 390.77 258.444 390.857 258.577H390.976V257.364H392.109V265.219C392.109 265.875 391.96 266.409 391.662 266.82C391.367 267.234 390.969 267.537 390.469 267.729C389.972 267.925 389.418 268.023 388.808 268.023ZM388.768 263.827C389.239 263.827 389.637 263.719 389.962 263.504C390.286 263.288 390.533 262.978 390.702 262.574C390.871 262.17 390.956 261.686 390.956 261.122C390.956 260.572 390.873 260.086 390.707 259.665C390.542 259.245 390.296 258.915 389.972 258.676C389.647 258.437 389.246 258.318 388.768 258.318C388.271 258.318 387.857 258.444 387.526 258.696C387.197 258.948 386.951 259.286 386.785 259.71C386.622 260.134 386.541 260.605 386.541 261.122C386.541 261.652 386.624 262.121 386.79 262.529C386.959 262.933 387.207 263.252 387.536 263.484C387.867 263.712 388.278 263.827 388.768 263.827ZM394.017 265V257.364H395.151V258.517H395.23C395.369 258.139 395.621 257.833 395.986 257.597C396.35 257.362 396.761 257.244 397.219 257.244C397.305 257.244 397.413 257.246 397.542 257.249C397.671 257.253 397.769 257.258 397.835 257.264V258.457C397.796 258.447 397.704 258.433 397.562 258.413C397.423 258.389 397.275 258.378 397.119 258.378C396.748 258.378 396.417 258.456 396.125 258.612C395.837 258.764 395.608 258.976 395.439 259.248C395.273 259.516 395.19 259.823 395.19 260.168V265H394.017ZM401.233 265.179C400.749 265.179 400.31 265.088 399.916 264.906C399.521 264.72 399.208 264.453 398.976 264.105C398.744 263.754 398.628 263.33 398.628 262.832C398.628 262.395 398.714 262.04 398.887 261.768C399.059 261.493 399.289 261.278 399.578 261.122C399.866 260.966 400.184 260.85 400.532 260.774C400.884 260.695 401.237 260.632 401.591 260.585C402.055 260.526 402.431 260.481 402.72 260.451C403.011 260.418 403.224 260.363 403.356 260.287C403.492 260.211 403.56 260.078 403.56 259.889V259.849C403.56 259.359 403.426 258.978 403.157 258.706C402.892 258.434 402.489 258.298 401.949 258.298C401.389 258.298 400.95 258.421 400.632 258.666C400.314 258.911 400.09 259.173 399.961 259.452L398.847 259.054C399.046 258.59 399.311 258.229 399.642 257.97C399.977 257.708 400.342 257.526 400.736 257.423C401.134 257.317 401.525 257.264 401.909 257.264C402.155 257.264 402.436 257.294 402.755 257.354C403.076 257.41 403.386 257.528 403.684 257.707C403.986 257.886 404.236 258.156 404.435 258.517C404.634 258.878 404.733 259.362 404.733 259.969V265H403.56V263.966H403.5C403.421 264.132 403.288 264.309 403.103 264.498C402.917 264.687 402.67 264.848 402.362 264.98C402.054 265.113 401.677 265.179 401.233 265.179ZM401.412 264.125C401.876 264.125 402.267 264.034 402.586 263.852C402.907 263.669 403.149 263.434 403.311 263.146C403.477 262.857 403.56 262.554 403.56 262.236V261.162C403.51 261.222 403.401 261.276 403.232 261.326C403.066 261.372 402.874 261.414 402.655 261.45C402.44 261.483 402.229 261.513 402.024 261.54C401.822 261.563 401.657 261.583 401.532 261.599C401.227 261.639 400.942 261.704 400.676 261.793C400.415 261.879 400.202 262.01 400.04 262.186C399.881 262.358 399.801 262.594 399.801 262.892C399.801 263.3 399.952 263.608 400.254 263.817C400.559 264.022 400.945 264.125 401.412 264.125ZM406.635 267.864V257.364H407.768V258.577H407.907C407.994 258.444 408.113 258.275 408.265 258.07C408.421 257.861 408.643 257.675 408.932 257.513C409.223 257.347 409.618 257.264 410.115 257.264C410.758 257.264 411.325 257.425 411.815 257.746C412.306 258.068 412.689 258.524 412.964 259.114C413.239 259.704 413.376 260.4 413.376 261.202C413.376 262.01 413.239 262.711 412.964 263.305C412.689 263.895 412.307 264.352 411.82 264.677C411.333 264.998 410.771 265.159 410.135 265.159C409.644 265.159 409.251 265.078 408.956 264.915C408.662 264.75 408.434 264.562 408.275 264.354C408.116 264.142 407.994 263.966 407.907 263.827H407.808V267.864H406.635ZM407.788 261.182C407.788 261.759 407.873 262.267 408.042 262.708C408.211 263.146 408.458 263.489 408.782 263.737C409.107 263.982 409.505 264.105 409.976 264.105C410.466 264.105 410.876 263.976 411.204 263.717C411.535 263.455 411.784 263.104 411.949 262.663C412.118 262.219 412.203 261.725 412.203 261.182C412.203 260.645 412.12 260.161 411.954 259.73C411.792 259.296 411.545 258.953 411.214 258.701C410.885 258.446 410.473 258.318 409.976 258.318C409.498 258.318 409.097 258.439 408.773 258.681C408.448 258.92 408.202 259.254 408.037 259.685C407.871 260.113 407.788 260.612 407.788 261.182ZM416.099 260.406V265H414.926V254.818H416.099V258.557H416.199C416.378 258.162 416.646 257.849 417.004 257.617C417.365 257.382 417.846 257.264 418.446 257.264C418.966 257.264 419.422 257.369 419.813 257.577C420.204 257.783 420.507 258.099 420.723 258.527C420.942 258.951 421.051 259.491 421.051 260.148V265H419.878V260.227C419.878 259.621 419.72 259.152 419.405 258.82C419.094 258.486 418.661 258.318 418.108 258.318C417.723 258.318 417.379 258.399 417.074 258.562C416.772 258.724 416.533 258.961 416.358 259.273C416.185 259.584 416.099 259.962 416.099 260.406ZM426.814 265V254.818H428.047V263.906H432.78V265H426.814ZM437.591 265.139C436.842 265.139 436.204 264.935 435.677 264.528C435.15 264.117 434.747 263.522 434.469 262.743C434.191 261.961 434.051 261.016 434.051 259.909C434.051 258.809 434.191 257.869 434.469 257.09C434.751 256.308 435.155 255.711 435.682 255.3C436.212 254.886 436.849 254.679 437.591 254.679C438.334 254.679 438.968 254.886 439.495 255.3C440.026 255.711 440.43 256.308 440.708 257.09C440.99 257.869 441.131 258.809 441.131 259.909C441.131 261.016 440.992 261.961 440.713 262.743C440.435 263.522 440.032 264.117 439.505 264.528C438.978 264.935 438.34 265.139 437.591 265.139ZM437.591 264.045C438.334 264.045 438.91 263.687 439.321 262.972C439.732 262.256 439.938 261.235 439.938 259.909C439.938 259.027 439.843 258.277 439.654 257.657C439.469 257.037 439.2 256.565 438.849 256.24C438.501 255.915 438.082 255.753 437.591 255.753C436.855 255.753 436.28 256.116 435.866 256.842C435.452 257.564 435.245 258.587 435.245 259.909C435.245 260.791 435.337 261.54 435.523 262.156C435.709 262.773 435.975 263.242 436.323 263.563C436.675 263.885 437.097 264.045 437.591 264.045Z" fill="white"/>
<rect x="167.25" y="386.25" width="451.5" height="79.5" rx="11.75" stroke="#4B5563" stroke-width="0.5"/>
<rect x="183.5" y="402.5" width="419" height="47" rx="2.5" fill="#798EF6" fill-opacity="0.04"/>
<rect x="183.5" y="402.5" width="419" height="47" rx="2.5" stroke="#516AEC"/>
<path d="M356.191 431V420.818H357.424V425.352H362.853V420.818H364.086V431H362.853V426.446H357.424V431H356.191ZM366.911 433.864C366.712 433.864 366.535 433.847 366.379 433.814C366.223 433.784 366.115 433.754 366.056 433.724L366.354 432.69C366.639 432.763 366.891 432.79 367.11 432.77C367.328 432.75 367.522 432.652 367.691 432.477C367.864 432.304 368.021 432.024 368.164 431.636L368.382 431.04L365.558 423.364H366.831L368.939 429.449H369.019L371.127 423.364H372.399L369.158 432.114C369.012 432.508 368.831 432.835 368.616 433.093C368.401 433.355 368.15 433.549 367.865 433.675C367.584 433.801 367.265 433.864 366.911 433.864ZM373.708 433.864V423.364H374.842V424.577H374.981C375.067 424.444 375.186 424.275 375.339 424.07C375.495 423.861 375.717 423.675 376.005 423.513C376.297 423.347 376.691 423.264 377.188 423.264C377.831 423.264 378.398 423.425 378.888 423.746C379.379 424.068 379.762 424.524 380.037 425.114C380.312 425.704 380.45 426.4 380.45 427.202C380.45 428.01 380.312 428.711 380.037 429.305C379.762 429.895 379.381 430.352 378.893 430.677C378.406 430.998 377.844 431.159 377.208 431.159C376.718 431.159 376.325 431.078 376.03 430.915C375.735 430.75 375.508 430.562 375.349 430.354C375.19 430.142 375.067 429.966 374.981 429.827H374.881V433.864H373.708ZM374.861 427.182C374.861 427.759 374.946 428.267 375.115 428.708C375.284 429.146 375.531 429.489 375.856 429.737C376.181 429.982 376.578 430.105 377.049 430.105C377.539 430.105 377.949 429.976 378.277 429.717C378.608 429.455 378.857 429.104 379.023 428.663C379.192 428.219 379.276 427.725 379.276 427.182C379.276 426.645 379.193 426.161 379.028 425.73C378.865 425.296 378.618 424.953 378.287 424.701C377.959 424.446 377.546 424.318 377.049 424.318C376.572 424.318 376.171 424.439 375.846 424.681C375.521 424.92 375.276 425.254 375.11 425.685C374.944 426.113 374.861 426.612 374.861 427.182ZM385.201 431.159C384.465 431.159 383.83 430.997 383.297 430.672C382.767 430.344 382.357 429.886 382.069 429.3C381.784 428.71 381.641 428.024 381.641 427.241C381.641 426.459 381.784 425.77 382.069 425.173C382.357 424.573 382.758 424.106 383.272 423.771C383.789 423.433 384.392 423.264 385.082 423.264C385.479 423.264 385.872 423.33 386.26 423.463C386.648 423.596 387.001 423.811 387.319 424.109C387.637 424.404 387.891 424.795 388.08 425.283C388.268 425.77 388.363 426.37 388.363 427.082V427.58H382.477V426.565H387.17C387.17 426.134 387.084 425.75 386.911 425.412C386.742 425.074 386.5 424.807 386.185 424.612C385.874 424.416 385.506 424.318 385.082 424.318C384.614 424.318 384.21 424.434 383.869 424.666C383.531 424.895 383.27 425.193 383.088 425.561C382.906 425.929 382.815 426.323 382.815 426.744V427.42C382.815 427.997 382.914 428.486 383.113 428.887C383.315 429.285 383.595 429.588 383.953 429.797C384.311 430.002 384.727 430.105 385.201 430.105C385.509 430.105 385.788 430.062 386.036 429.976C386.288 429.886 386.505 429.754 386.688 429.578C386.87 429.399 387.011 429.177 387.11 428.912L388.244 429.23C388.124 429.615 387.924 429.953 387.642 430.244C387.36 430.533 387.012 430.758 386.598 430.92C386.184 431.08 385.718 431.159 385.201 431.159ZM389.908 431V423.364H391.041V424.517H391.121C391.26 424.139 391.512 423.833 391.876 423.597C392.241 423.362 392.652 423.244 393.109 423.244C393.196 423.244 393.303 423.246 393.433 423.249C393.562 423.253 393.66 423.258 393.726 423.264V424.457C393.686 424.447 393.595 424.433 393.452 424.413C393.313 424.389 393.166 424.378 393.01 424.378C392.639 424.378 392.307 424.456 392.016 424.612C391.727 424.764 391.499 424.976 391.33 425.248C391.164 425.516 391.081 425.823 391.081 426.168V431H389.908ZM397.727 434.023C397.16 434.023 396.673 433.95 396.265 433.804C395.857 433.661 395.518 433.473 395.246 433.237C394.977 433.005 394.764 432.757 394.605 432.491L395.539 431.835C395.645 431.974 395.779 432.134 395.942 432.312C396.104 432.495 396.326 432.652 396.608 432.785C396.893 432.921 397.266 432.989 397.727 432.989C398.343 432.989 398.852 432.839 399.253 432.541C399.654 432.243 399.855 431.776 399.855 431.139V429.588H399.755C399.669 429.727 399.546 429.9 399.387 430.105C399.231 430.307 399.006 430.488 398.711 430.647C398.419 430.803 398.025 430.881 397.528 430.881C396.911 430.881 396.358 430.735 395.867 430.443C395.38 430.152 394.994 429.727 394.709 429.17C394.427 428.614 394.286 427.937 394.286 427.142C394.286 426.36 394.424 425.679 394.699 425.099C394.974 424.515 395.357 424.065 395.847 423.746C396.338 423.425 396.905 423.264 397.548 423.264C398.045 423.264 398.439 423.347 398.731 423.513C399.026 423.675 399.251 423.861 399.407 424.07C399.566 424.275 399.689 424.444 399.775 424.577H399.894V423.364H401.028V431.219C401.028 431.875 400.879 432.409 400.58 432.82C400.285 433.234 399.888 433.537 399.387 433.729C398.89 433.925 398.337 434.023 397.727 434.023ZM397.687 429.827C398.158 429.827 398.555 429.719 398.88 429.504C399.205 429.288 399.452 428.978 399.621 428.574C399.79 428.17 399.874 427.686 399.874 427.122C399.874 426.572 399.792 426.086 399.626 425.665C399.46 425.245 399.215 424.915 398.89 424.676C398.565 424.437 398.164 424.318 397.687 424.318C397.19 424.318 396.775 424.444 396.444 424.696C396.116 424.948 395.869 425.286 395.703 425.71C395.541 426.134 395.46 426.605 395.46 427.122C395.46 427.652 395.542 428.121 395.708 428.529C395.877 428.933 396.126 429.252 396.454 429.484C396.785 429.712 397.196 429.827 397.687 429.827ZM402.936 431V423.364H404.069V424.517H404.149C404.288 424.139 404.54 423.833 404.904 423.597C405.269 423.362 405.68 423.244 406.137 423.244C406.223 423.244 406.331 423.246 406.46 423.249C406.59 423.253 406.687 423.258 406.754 423.264V424.457C406.714 424.447 406.623 424.433 406.48 424.413C406.341 424.389 406.194 424.378 406.038 424.378C405.667 424.378 405.335 424.456 405.044 424.612C404.755 424.764 404.526 424.976 404.357 425.248C404.192 425.516 404.109 425.823 404.109 426.168V431H402.936ZM410.152 431.179C409.668 431.179 409.229 431.088 408.834 430.906C408.44 430.72 408.127 430.453 407.895 430.105C407.663 429.754 407.547 429.33 407.547 428.832C407.547 428.395 407.633 428.04 407.805 427.768C407.977 427.493 408.208 427.278 408.496 427.122C408.785 426.966 409.103 426.85 409.451 426.774C409.802 426.695 410.155 426.632 410.51 426.585C410.974 426.526 411.35 426.481 411.638 426.451C411.93 426.418 412.142 426.363 412.275 426.287C412.41 426.211 412.478 426.078 412.478 425.889V425.849C412.478 425.359 412.344 424.978 412.076 424.706C411.811 424.434 411.408 424.298 410.868 424.298C410.307 424.298 409.868 424.421 409.55 424.666C409.232 424.911 409.008 425.173 408.879 425.452L407.765 425.054C407.964 424.59 408.229 424.229 408.561 423.97C408.896 423.708 409.26 423.526 409.655 423.423C410.052 423.317 410.443 423.264 410.828 423.264C411.073 423.264 411.355 423.294 411.673 423.354C411.994 423.41 412.304 423.528 412.603 423.707C412.904 423.886 413.155 424.156 413.353 424.517C413.552 424.878 413.652 425.362 413.652 425.969V431H412.478V429.966H412.419C412.339 430.132 412.207 430.309 412.021 430.498C411.835 430.687 411.588 430.848 411.28 430.98C410.972 431.113 410.596 431.179 410.152 431.179ZM410.331 430.125C410.795 430.125 411.186 430.034 411.504 429.852C411.825 429.669 412.067 429.434 412.23 429.146C412.396 428.857 412.478 428.554 412.478 428.236V427.162C412.429 427.222 412.319 427.276 412.15 427.326C411.985 427.372 411.792 427.414 411.574 427.45C411.358 427.483 411.148 427.513 410.942 427.54C410.74 427.563 410.576 427.583 410.45 427.599C410.145 427.639 409.86 427.704 409.595 427.793C409.333 427.879 409.121 428.01 408.959 428.186C408.799 428.358 408.72 428.594 408.72 428.892C408.72 429.3 408.871 429.608 409.172 429.817C409.477 430.022 409.863 430.125 410.331 430.125ZM415.553 433.864V423.364H416.687V424.577H416.826C416.912 424.444 417.031 424.275 417.184 424.07C417.34 423.861 417.562 423.675 417.85 423.513C418.142 423.347 418.536 423.264 419.033 423.264C419.676 423.264 420.243 423.425 420.734 423.746C421.224 424.068 421.607 424.524 421.882 425.114C422.157 425.704 422.295 426.4 422.295 427.202C422.295 428.01 422.157 428.711 421.882 429.305C421.607 429.895 421.226 430.352 420.739 430.677C420.251 430.998 419.69 431.159 419.053 431.159C418.563 431.159 418.17 431.078 417.875 430.915C417.58 430.75 417.353 430.562 417.194 430.354C417.035 430.142 416.912 429.966 416.826 429.827H416.726V433.864H415.553ZM416.707 427.182C416.707 427.759 416.791 428.267 416.96 428.708C417.129 429.146 417.376 429.489 417.701 429.737C418.026 429.982 418.423 430.105 418.894 430.105C419.385 430.105 419.794 429.976 420.122 429.717C420.454 429.455 420.702 429.104 420.868 428.663C421.037 428.219 421.121 427.725 421.121 427.182C421.121 426.645 421.039 426.161 420.873 425.73C420.71 425.296 420.463 424.953 420.132 424.701C419.804 424.446 419.391 424.318 418.894 424.318C418.417 424.318 418.016 424.439 417.691 424.681C417.366 424.92 417.121 425.254 416.955 425.685C416.789 426.113 416.707 426.612 416.707 427.182ZM425.018 426.406V431H423.844V420.818H425.018V424.557H425.117C425.296 424.162 425.565 423.849 425.923 423.617C426.284 423.382 426.764 423.264 427.364 423.264C427.885 423.264 428.34 423.369 428.732 423.577C429.123 423.783 429.426 424.099 429.641 424.527C429.86 424.951 429.969 425.491 429.969 426.148V431H428.796V426.227C428.796 425.621 428.639 425.152 428.324 424.82C428.012 424.486 427.58 424.318 427.026 424.318C426.642 424.318 426.297 424.399 425.992 424.562C425.691 424.724 425.452 424.961 425.276 425.273C425.104 425.584 425.018 425.962 425.018 426.406Z" fill="white"/>
<rect x="255" y="170" width="56" height="32" rx="4" fill="white" fill-opacity="0.02"/>
<rect x="255" y="170" width="56" height="32" rx="4" stroke="#798EF6" stroke-width="0.5"/>
<path d="M268.18 190V181.273H271.376C271.995 181.273 272.508 181.375 272.914 181.58C273.32 181.781 273.624 182.055 273.826 182.402C274.028 182.746 274.128 183.134 274.128 183.565C274.128 183.929 274.062 184.236 273.928 184.486C273.795 184.733 273.616 184.932 273.391 185.082C273.17 185.23 272.925 185.338 272.658 185.406V185.491C272.948 185.506 273.231 185.599 273.506 185.773C273.785 185.943 274.015 186.186 274.197 186.501C274.378 186.817 274.469 187.2 274.469 187.652C274.469 188.098 274.364 188.499 274.154 188.854C273.947 189.206 273.626 189.486 273.191 189.693C272.756 189.898 272.201 190 271.525 190H268.18ZM269.496 188.871H271.397C272.028 188.871 272.479 188.749 272.752 188.504C273.025 188.26 273.161 187.955 273.161 187.588C273.161 187.312 273.091 187.06 272.952 186.83C272.813 186.599 272.614 186.416 272.356 186.28C272.1 186.143 271.796 186.075 271.444 186.075H269.496V188.871ZM269.496 185.048H271.26C271.556 185.048 271.822 184.991 272.057 184.878C272.296 184.764 272.485 184.605 272.624 184.401C272.766 184.193 272.837 183.949 272.837 183.668C272.837 183.307 272.711 183.004 272.458 182.76C272.205 182.516 271.817 182.393 271.295 182.393H269.496V185.048ZM277.203 181.273V190H275.929V181.273H277.203ZM281.674 190.132C281.061 190.132 280.525 189.991 280.068 189.71C279.61 189.429 279.255 189.036 279.002 188.53C278.749 188.024 278.623 187.433 278.623 186.757C278.623 186.078 278.749 185.484 279.002 184.976C279.255 184.467 279.61 184.072 280.068 183.791C280.525 183.51 281.061 183.369 281.674 183.369C282.288 183.369 282.823 183.51 283.281 183.791C283.738 184.072 284.093 184.467 284.346 184.976C284.599 185.484 284.725 186.078 284.725 186.757C284.725 187.433 284.599 188.024 284.346 188.53C284.093 189.036 283.738 189.429 283.281 189.71C282.823 189.991 282.288 190.132 281.674 190.132ZM281.678 189.062C282.076 189.062 282.406 188.957 282.667 188.747C282.928 188.537 283.122 188.257 283.247 187.908C283.374 187.558 283.438 187.173 283.438 186.753C283.438 186.335 283.374 185.952 283.247 185.602C283.122 185.25 282.928 184.967 282.667 184.754C282.406 184.541 282.076 184.435 281.678 184.435C281.278 184.435 280.945 184.541 280.681 184.754C280.42 184.967 280.225 185.25 280.097 185.602C279.972 185.952 279.91 186.335 279.91 186.753C279.91 187.173 279.972 187.558 280.097 187.908C280.225 188.257 280.42 188.537 280.681 188.747C280.945 188.957 281.278 189.062 281.678 189.062ZM288.905 190.132C288.271 190.132 287.726 189.989 287.268 189.702C286.814 189.412 286.464 189.013 286.22 188.504C285.976 187.996 285.854 187.413 285.854 186.757C285.854 186.092 285.979 185.506 286.229 184.997C286.479 184.486 286.831 184.087 287.285 183.8C287.74 183.513 288.275 183.369 288.892 183.369C289.389 183.369 289.832 183.462 290.221 183.646C290.611 183.828 290.925 184.084 291.163 184.413C291.405 184.743 291.548 185.128 291.594 185.568H290.354C290.285 185.261 290.129 184.997 289.885 184.776C289.643 184.554 289.319 184.443 288.913 184.443C288.558 184.443 288.247 184.537 287.98 184.724C287.716 184.909 287.51 185.173 287.362 185.517C287.214 185.858 287.14 186.261 287.14 186.727C287.14 187.205 287.213 187.616 287.358 187.963C287.503 188.31 287.707 188.578 287.971 188.768C288.238 188.959 288.552 189.054 288.913 189.054C289.155 189.054 289.373 189.01 289.569 188.922C289.768 188.831 289.934 188.702 290.068 188.534C290.204 188.366 290.3 188.165 290.354 187.929H291.594C291.548 188.352 291.41 188.73 291.18 189.062C290.95 189.395 290.642 189.656 290.256 189.847C289.872 190.037 289.422 190.132 288.905 190.132ZM294.128 187.78L294.119 186.224H294.341L296.949 183.455H298.475L295.5 186.608H295.3L294.128 187.78ZM292.956 190V181.273H294.23V190H292.956ZM297.09 190L294.746 186.889L295.624 185.999L298.654 190H297.09Z" fill="#F3F4F6"/>
<rect x="463" y="170" width="56" height="32" rx="4" fill="white" fill-opacity="0.02"/>
<rect x="463" y="170" width="56" height="32" rx="4" stroke="#798EF6" stroke-width="0.5"/>
<path d="M476.18 190V181.273H479.376C479.995 181.273 480.508 181.375 480.914 181.58C481.32 181.781 481.624 182.055 481.826 182.402C482.028 182.746 482.128 183.134 482.128 183.565C482.128 183.929 482.062 184.236 481.928 184.486C481.795 184.733 481.616 184.932 481.391 185.082C481.17 185.23 480.925 185.338 480.658 185.406V185.491C480.948 185.506 481.231 185.599 481.506 185.773C481.785 185.943 482.015 186.186 482.197 186.501C482.378 186.817 482.469 187.2 482.469 187.652C482.469 188.098 482.364 188.499 482.154 188.854C481.947 189.206 481.626 189.486 481.191 189.693C480.756 189.898 480.201 190 479.525 190H476.18ZM477.496 188.871H479.397C480.028 188.871 480.479 188.749 480.752 188.504C481.025 188.26 481.161 187.955 481.161 187.588C481.161 187.312 481.091 187.06 480.952 186.83C480.813 186.599 480.614 186.416 480.356 186.28C480.1 186.143 479.796 186.075 479.444 186.075H477.496V188.871ZM477.496 185.048H479.26C479.556 185.048 479.822 184.991 480.057 184.878C480.296 184.764 480.485 184.605 480.624 184.401C480.766 184.193 480.837 183.949 480.837 183.668C480.837 183.307 480.711 183.004 480.458 182.76C480.205 182.516 479.817 182.393 479.295 182.393H477.496V185.048ZM485.203 181.273V190H483.929V181.273H485.203ZM489.674 190.132C489.061 190.132 488.525 189.991 488.068 189.71C487.61 189.429 487.255 189.036 487.002 188.53C486.749 188.024 486.623 187.433 486.623 186.757C486.623 186.078 486.749 185.484 487.002 184.976C487.255 184.467 487.61 184.072 488.068 183.791C488.525 183.51 489.061 183.369 489.674 183.369C490.288 183.369 490.823 183.51 491.281 183.791C491.738 184.072 492.093 184.467 492.346 184.976C492.599 185.484 492.725 186.078 492.725 186.757C492.725 187.433 492.599 188.024 492.346 188.53C492.093 189.036 491.738 189.429 491.281 189.71C490.823 189.991 490.288 190.132 489.674 190.132ZM489.678 189.062C490.076 189.062 490.406 188.957 490.667 188.747C490.928 188.537 491.122 188.257 491.247 187.908C491.374 187.558 491.438 187.173 491.438 186.753C491.438 186.335 491.374 185.952 491.247 185.602C491.122 185.25 490.928 184.967 490.667 184.754C490.406 184.541 490.076 184.435 489.678 184.435C489.278 184.435 488.945 184.541 488.681 184.754C488.42 184.967 488.225 185.25 488.097 185.602C487.972 185.952 487.91 186.335 487.91 186.753C487.91 187.173 487.972 187.558 488.097 187.908C488.225 188.257 488.42 188.537 488.681 188.747C488.945 188.957 489.278 189.062 489.678 189.062ZM496.905 190.132C496.271 190.132 495.726 189.989 495.268 189.702C494.814 189.412 494.464 189.013 494.22 188.504C493.976 187.996 493.854 187.413 493.854 186.757C493.854 186.092 493.979 185.506 494.229 184.997C494.479 184.486 494.831 184.087 495.285 183.8C495.74 183.513 496.275 183.369 496.892 183.369C497.389 183.369 497.832 183.462 498.221 183.646C498.611 183.828 498.925 184.084 499.163 184.413C499.405 184.743 499.548 185.128 499.594 185.568H498.354C498.285 185.261 498.129 184.997 497.885 184.776C497.643 184.554 497.319 184.443 496.913 184.443C496.558 184.443 496.247 184.537 495.98 184.724C495.716 184.909 495.51 185.173 495.362 185.517C495.214 185.858 495.14 186.261 495.14 186.727C495.14 187.205 495.213 187.616 495.358 187.963C495.503 188.31 495.707 188.578 495.971 188.768C496.238 188.959 496.552 189.054 496.913 189.054C497.155 189.054 497.373 189.01 497.569 188.922C497.768 188.831 497.934 188.702 498.068 188.534C498.204 188.366 498.3 188.165 498.354 187.929H499.594C499.548 188.352 499.41 188.73 499.18 189.062C498.95 189.395 498.642 189.656 498.256 189.847C497.872 190.037 497.422 190.132 496.905 190.132ZM502.128 187.78L502.119 186.224H502.341L504.949 183.455H506.475L503.5 186.608H503.3L502.128 187.78ZM500.956 190V181.273H502.23V190H500.956ZM505.09 190L502.746 186.889L503.624 185.999L506.654 190H505.09Z" fill="#F3F4F6"/>
<rect x="69" y="100" width="83" height="32" rx="4" fill="white" fill-opacity="0.02"/>
<rect x="69" y="100" width="83" height="32" rx="4" stroke="#5BC78D" stroke-width="0.5"/>
<path d="M81.585 112.406V111.273H88.3393V112.406H85.6163V120H84.3038V112.406H81.585ZM91.5375 120.132C90.9238 120.132 90.3883 119.991 89.9309 119.71C89.4735 119.429 89.1184 119.036 88.8656 118.53C88.6127 118.024 88.4863 117.433 88.4863 116.757C88.4863 116.078 88.6127 115.484 88.8656 114.976C89.1184 114.467 89.4735 114.072 89.9309 113.791C90.3883 113.51 90.9238 113.369 91.5375 113.369C92.1511 113.369 92.6866 113.51 93.144 113.791C93.6014 114.072 93.9565 114.467 94.2093 114.976C94.4622 115.484 94.5886 116.078 94.5886 116.757C94.5886 117.433 94.4622 118.024 94.2093 118.53C93.9565 119.036 93.6014 119.429 93.144 119.71C92.6866 119.991 92.1511 120.132 91.5375 120.132ZM91.5417 119.062C91.9395 119.062 92.269 118.957 92.5304 118.747C92.7917 118.537 92.9849 118.257 93.1099 117.908C93.2377 117.558 93.3017 117.173 93.3017 116.753C93.3017 116.335 93.2377 115.952 93.1099 115.602C92.9849 115.25 92.7917 114.967 92.5304 114.754C92.269 114.541 91.9395 114.435 91.5417 114.435C91.1412 114.435 90.8088 114.541 90.5446 114.754C90.2832 114.967 90.0886 115.25 89.9608 115.602C89.8358 115.952 89.7733 116.335 89.7733 116.753C89.7733 117.173 89.8358 117.558 89.9608 117.908C90.0886 118.257 90.2832 118.537 90.5446 118.747C90.8088 118.957 91.1412 119.062 91.5417 119.062ZM97.1827 117.78L97.1742 116.224H97.3958L100.004 113.455H101.529L98.5549 116.608H98.3546L97.1827 117.78ZM96.0108 120V111.273H97.285V120H96.0108ZM100.144 120L97.8006 116.889L98.6784 115.999L101.708 120H100.144ZM105.242 120.132C104.597 120.132 104.042 119.994 103.576 119.719C103.113 119.44 102.755 119.05 102.502 118.547C102.252 118.041 102.127 117.449 102.127 116.77C102.127 116.099 102.252 115.509 102.502 114.997C102.755 114.486 103.107 114.087 103.559 113.8C104.013 113.513 104.545 113.369 105.153 113.369C105.522 113.369 105.88 113.43 106.226 113.553C106.573 113.675 106.884 113.866 107.16 114.128C107.435 114.389 107.653 114.729 107.812 115.146C107.971 115.561 108.05 116.065 108.05 116.659V117.111H102.847V116.156H106.802C106.802 115.821 106.733 115.524 106.597 115.266C106.461 115.004 106.269 114.798 106.022 114.648C105.778 114.497 105.491 114.422 105.161 114.422C104.803 114.422 104.491 114.51 104.224 114.686C103.959 114.859 103.755 115.087 103.61 115.368C103.468 115.646 103.397 115.949 103.397 116.276V117.021C103.397 117.459 103.474 117.831 103.627 118.138C103.783 118.445 104.001 118.679 104.279 118.841C104.557 119 104.883 119.08 105.255 119.08C105.496 119.08 105.716 119.045 105.915 118.977C106.114 118.906 106.286 118.801 106.431 118.662C106.576 118.523 106.687 118.351 106.763 118.146L107.969 118.364C107.873 118.719 107.699 119.03 107.449 119.297C107.202 119.561 106.891 119.767 106.516 119.915C106.144 120.06 105.719 120.132 105.242 120.132ZM110.738 116.114V120H109.464V113.455H110.687V114.52H110.768C110.919 114.173 111.154 113.895 111.475 113.685C111.799 113.474 112.207 113.369 112.698 113.369C113.144 113.369 113.535 113.463 113.87 113.651C114.205 113.835 114.465 114.111 114.65 114.477C114.835 114.844 114.927 115.297 114.927 115.837V120H113.653V115.99C113.653 115.516 113.529 115.145 113.282 114.878C113.035 114.608 112.695 114.473 112.264 114.473C111.968 114.473 111.705 114.537 111.475 114.665C111.248 114.793 111.068 114.98 110.934 115.227C110.803 115.472 110.738 115.767 110.738 116.114ZM119.483 112.406V111.273H126.238V112.406H123.515V120H122.202V112.406H119.483ZM128.024 113.455L129.469 116.003L130.926 113.455H132.32L130.279 116.727L132.337 120H130.943L129.469 117.554L127.999 120H126.601L128.638 116.727L126.627 113.455H128.024ZM134.902 116.114V120H133.628V113.455H134.851V114.52H134.932C135.083 114.173 135.318 113.895 135.639 113.685C135.963 113.474 136.371 113.369 136.862 113.369C137.308 113.369 137.699 113.463 138.034 113.651C138.369 113.835 138.629 114.111 138.814 114.477C138.999 114.844 139.091 115.297 139.091 115.837V120H137.817V115.99C137.817 115.516 137.693 115.145 137.446 114.878C137.199 114.608 136.86 114.473 136.428 114.473C136.132 114.473 135.869 114.537 135.639 114.665C135.412 114.793 135.232 114.98 135.098 115.227C134.968 115.472 134.902 115.767 134.902 116.114Z" fill="#F3F4F6"/>
<rect x="353" y="324" width="79" height="32" rx="4" fill="white" fill-opacity="0.02"/>
<rect x="353" y="324" width="79" height="32" rx="4" stroke="#798EF6" stroke-width="0.5"/>
<path d="M370.979 337.565C370.933 337.162 370.746 336.849 370.416 336.628C370.086 336.403 369.672 336.291 369.172 336.291C368.814 336.291 368.504 336.348 368.243 336.462C367.981 336.572 367.778 336.726 367.633 336.922C367.491 337.115 367.42 337.335 367.42 337.582C367.42 337.79 367.469 337.969 367.565 338.119C367.665 338.27 367.794 338.396 367.953 338.499C368.115 338.598 368.288 338.682 368.473 338.75C368.657 338.815 368.835 338.869 369.006 338.912L369.858 339.134C370.136 339.202 370.422 339.294 370.714 339.411C371.007 339.527 371.278 339.68 371.528 339.871C371.778 340.061 371.98 340.297 372.133 340.578C372.29 340.859 372.368 341.196 372.368 341.588C372.368 342.082 372.24 342.521 371.984 342.905C371.731 343.288 371.363 343.591 370.881 343.812C370.4 344.034 369.819 344.145 369.138 344.145C368.484 344.145 367.919 344.041 367.442 343.834C366.964 343.626 366.591 343.332 366.321 342.952C366.051 342.568 365.902 342.114 365.873 341.588H367.194C367.22 341.903 367.322 342.166 367.501 342.376C367.683 342.584 367.915 342.739 368.196 342.841C368.48 342.94 368.791 342.99 369.129 342.99C369.501 342.99 369.832 342.932 370.122 342.815C370.415 342.696 370.645 342.531 370.812 342.321C370.98 342.108 371.064 341.859 371.064 341.575C371.064 341.317 370.99 341.105 370.842 340.94C370.697 340.776 370.5 340.639 370.25 340.531C370.003 340.423 369.723 340.328 369.41 340.246L368.379 339.964C367.68 339.774 367.126 339.494 366.717 339.125C366.311 338.756 366.108 338.267 366.108 337.659C366.108 337.156 366.244 336.717 366.517 336.342C366.79 335.967 367.159 335.676 367.625 335.469C368.091 335.259 368.616 335.153 369.202 335.153C369.792 335.153 370.314 335.257 370.765 335.464C371.22 335.672 371.578 335.957 371.839 336.321C372.101 336.682 372.237 337.097 372.248 337.565H370.979ZM375.113 340.114V344H373.839V337.455H375.062V338.52H375.143C375.294 338.173 375.529 337.895 375.85 337.685C376.174 337.474 376.582 337.369 377.073 337.369C377.519 337.369 377.91 337.463 378.245 337.651C378.58 337.835 378.84 338.111 379.025 338.477C379.21 338.844 379.302 339.297 379.302 339.837V344H378.028V339.99C378.028 339.516 377.904 339.145 377.657 338.878C377.41 338.608 377.07 338.473 376.639 338.473C376.343 338.473 376.08 338.537 375.85 338.665C375.623 338.793 375.443 338.98 375.309 339.227C375.178 339.472 375.113 339.767 375.113 340.114ZM382.916 344.145C382.501 344.145 382.126 344.068 381.791 343.915C381.455 343.759 381.19 343.533 380.994 343.237C380.801 342.942 380.704 342.58 380.704 342.151C380.704 341.781 380.775 341.477 380.917 341.239C381.059 341 381.251 340.811 381.492 340.672C381.734 340.533 382.004 340.428 382.302 340.357C382.6 340.286 382.904 340.232 383.214 340.195C383.606 340.149 383.924 340.112 384.169 340.084C384.413 340.053 384.59 340.003 384.701 339.935C384.812 339.866 384.867 339.756 384.867 339.602V339.572C384.867 339.2 384.762 338.912 384.552 338.707C384.345 338.503 384.035 338.401 383.623 338.401C383.194 338.401 382.856 338.496 382.609 338.686C382.365 338.874 382.195 339.082 382.102 339.312L380.904 339.04C381.046 338.642 381.254 338.321 381.526 338.077C381.802 337.83 382.119 337.651 382.477 337.54C382.835 337.426 383.211 337.369 383.606 337.369C383.867 337.369 384.144 337.401 384.437 337.463C384.732 337.523 385.008 337.634 385.264 337.795C385.522 337.957 385.734 338.189 385.899 338.49C386.063 338.788 386.146 339.176 386.146 339.653V344H384.901V343.105H384.85C384.768 343.27 384.644 343.432 384.48 343.591C384.315 343.75 384.103 343.882 383.845 343.987C383.586 344.092 383.276 344.145 382.916 344.145ZM383.193 343.122C383.545 343.122 383.846 343.053 384.096 342.913C384.349 342.774 384.541 342.592 384.671 342.368C384.805 342.141 384.872 341.898 384.872 341.639V340.795C384.826 340.841 384.738 340.884 384.607 340.923C384.48 340.96 384.333 340.993 384.169 341.021C384.004 341.047 383.843 341.071 383.687 341.094C383.531 341.114 383.4 341.131 383.295 341.145C383.048 341.176 382.822 341.229 382.617 341.303C382.416 341.376 382.254 341.483 382.132 341.622C382.012 341.759 381.953 341.94 381.953 342.168C381.953 342.483 382.069 342.722 382.302 342.884C382.535 343.043 382.832 343.122 383.193 343.122ZM387.843 346.455V337.455H389.087V338.516H389.194C389.268 338.379 389.374 338.222 389.513 338.043C389.653 337.864 389.846 337.707 390.093 337.574C390.34 337.438 390.667 337.369 391.073 337.369C391.601 337.369 392.073 337.503 392.488 337.77C392.903 338.037 393.228 338.422 393.464 338.925C393.702 339.428 393.822 340.033 393.822 340.74C393.822 341.447 393.704 342.054 393.468 342.56C393.232 343.062 392.908 343.45 392.496 343.723C392.084 343.993 391.614 344.128 391.086 344.128C390.688 344.128 390.363 344.061 390.11 343.928C389.86 343.794 389.664 343.638 389.522 343.459C389.38 343.28 389.27 343.121 389.194 342.982H389.117V346.455H387.843ZM389.091 340.727C389.091 341.187 389.158 341.591 389.292 341.938C389.425 342.284 389.618 342.555 389.871 342.751C390.124 342.945 390.434 343.041 390.8 343.041C391.181 343.041 391.499 342.94 391.755 342.739C392.01 342.534 392.204 342.257 392.334 341.908C392.468 341.558 392.535 341.165 392.535 340.727C392.535 340.295 392.469 339.908 392.339 339.564C392.211 339.22 392.018 338.949 391.759 338.75C391.503 338.551 391.184 338.452 390.8 338.452C390.431 338.452 390.118 338.547 389.863 338.737C389.61 338.928 389.418 339.193 389.287 339.534C389.157 339.875 389.091 340.273 389.091 340.727ZM400.154 339.053L398.999 339.257C398.951 339.109 398.874 338.969 398.769 338.835C398.667 338.702 398.528 338.592 398.351 338.507C398.175 338.422 397.955 338.379 397.691 338.379C397.33 338.379 397.029 338.46 396.787 338.622C396.546 338.781 396.425 338.987 396.425 339.24C396.425 339.459 396.506 339.635 396.668 339.768C396.83 339.902 397.091 340.011 397.452 340.097L398.492 340.335C399.094 340.474 399.543 340.689 399.839 340.979C400.134 341.268 400.282 341.645 400.282 342.108C400.282 342.5 400.168 342.849 399.941 343.156C399.716 343.46 399.403 343.699 398.999 343.872C398.599 344.045 398.134 344.132 397.606 344.132C396.873 344.132 396.275 343.976 395.812 343.663C395.349 343.348 395.064 342.901 394.959 342.321L396.191 342.134C396.268 342.455 396.425 342.697 396.664 342.862C396.903 343.024 397.214 343.105 397.597 343.105C398.015 343.105 398.349 343.018 398.599 342.845C398.849 342.669 398.974 342.455 398.974 342.202C398.974 341.997 398.897 341.825 398.743 341.686C398.593 341.547 398.361 341.442 398.049 341.371L396.941 341.128C396.33 340.989 395.878 340.767 395.586 340.463C395.296 340.159 395.151 339.774 395.151 339.308C395.151 338.922 395.259 338.584 395.475 338.294C395.691 338.004 395.989 337.778 396.37 337.616C396.751 337.452 397.187 337.369 397.678 337.369C398.385 337.369 398.942 337.523 399.349 337.83C399.755 338.134 400.023 338.541 400.154 339.053ZM402.957 340.114V344H401.683V335.273H402.94V338.52H403.021C403.174 338.168 403.409 337.888 403.724 337.68C404.039 337.473 404.451 337.369 404.96 337.369C405.409 337.369 405.801 337.462 406.136 337.646C406.474 337.831 406.735 338.107 406.92 338.473C407.107 338.837 407.201 339.291 407.201 339.837V344H405.927V339.99C405.927 339.51 405.803 339.138 405.556 338.874C405.309 338.607 404.965 338.473 404.525 338.473C404.224 338.473 403.954 338.537 403.715 338.665C403.48 338.793 403.294 338.98 403.157 339.227C403.024 339.472 402.957 339.767 402.957 340.114ZM411.659 344.132C411.045 344.132 410.509 343.991 410.052 343.71C409.595 343.429 409.24 343.036 408.987 342.53C408.734 342.024 408.607 341.433 408.607 340.757C408.607 340.078 408.734 339.484 408.987 338.976C409.24 338.467 409.595 338.072 410.052 337.791C410.509 337.51 411.045 337.369 411.659 337.369C412.272 337.369 412.808 337.51 413.265 337.791C413.722 338.072 414.078 338.467 414.33 338.976C414.583 339.484 414.71 340.078 414.71 340.757C414.71 341.433 414.583 342.024 414.33 342.53C414.078 343.036 413.722 343.429 413.265 343.71C412.808 343.991 412.272 344.132 411.659 344.132ZM411.663 343.062C412.061 343.062 412.39 342.957 412.651 342.747C412.913 342.537 413.106 342.257 413.231 341.908C413.359 341.558 413.423 341.173 413.423 340.753C413.423 340.335 413.359 339.952 413.231 339.602C413.106 339.25 412.913 338.967 412.651 338.754C412.39 338.541 412.061 338.435 411.663 338.435C411.262 338.435 410.93 338.541 410.666 338.754C410.404 338.967 410.21 339.25 410.082 339.602C409.957 339.952 409.894 340.335 409.894 340.753C409.894 341.173 409.957 341.558 410.082 341.908C410.21 342.257 410.404 342.537 410.666 342.747C410.93 342.957 411.262 343.062 411.663 343.062ZM419.187 337.455V338.477H415.612V337.455H419.187ZM416.571 335.886H417.845V342.078C417.845 342.325 417.882 342.511 417.956 342.636C418.03 342.759 418.125 342.842 418.241 342.888C418.361 342.93 418.49 342.952 418.629 342.952C418.731 342.952 418.821 342.945 418.898 342.93C418.974 342.916 419.034 342.905 419.077 342.896L419.307 343.949C419.233 343.977 419.128 344.006 418.991 344.034C418.855 344.065 418.684 344.082 418.48 344.085C418.145 344.091 417.832 344.031 417.542 343.906C417.253 343.781 417.018 343.588 416.839 343.327C416.66 343.065 416.571 342.737 416.571 342.342V335.886Z" fill="#F3F4F6"/>
<rect x="643" y="100" width="98" height="32" rx="4" fill="white" fill-opacity="0.02"/>
<rect x="643" y="100" width="98" height="32" rx="4" stroke="#F0C519" stroke-width="0.5"/>
<path d="M663.487 114.111H662.157C662.106 113.827 662.011 113.577 661.872 113.361C661.732 113.145 661.562 112.962 661.36 112.811C661.159 112.661 660.933 112.547 660.683 112.47C660.436 112.393 660.173 112.355 659.894 112.355C659.392 112.355 658.941 112.482 658.544 112.734C658.149 112.987 657.836 113.358 657.606 113.847C657.379 114.335 657.265 114.932 657.265 115.636C657.265 116.347 657.379 116.946 657.606 117.435C657.836 117.923 658.15 118.293 658.548 118.543C658.945 118.793 659.393 118.918 659.89 118.918C660.166 118.918 660.427 118.881 660.674 118.807C660.924 118.73 661.15 118.618 661.352 118.47C661.553 118.322 661.724 118.142 661.863 117.929C662.005 117.713 662.103 117.466 662.157 117.188L663.487 117.192C663.416 117.621 663.278 118.016 663.073 118.376C662.872 118.734 662.612 119.044 662.294 119.305C661.978 119.564 661.617 119.764 661.211 119.906C660.805 120.048 660.362 120.119 659.882 120.119C659.126 120.119 658.453 119.94 657.862 119.582C657.271 119.222 656.805 118.706 656.464 118.036C656.126 117.365 655.957 116.565 655.957 115.636C655.957 114.705 656.127 113.905 656.468 113.237C656.809 112.567 657.275 112.053 657.866 111.695C658.457 111.334 659.129 111.153 659.882 111.153C660.345 111.153 660.776 111.22 661.177 111.354C661.58 111.484 661.943 111.678 662.264 111.933C662.585 112.186 662.85 112.496 663.061 112.862C663.271 113.226 663.413 113.642 663.487 114.111ZM669.106 117.286V113.455H670.385V120H669.132V118.866H669.064C668.913 119.216 668.672 119.507 668.339 119.74C668.01 119.97 667.599 120.085 667.108 120.085C666.687 120.085 666.315 119.993 665.991 119.808C665.67 119.621 665.417 119.344 665.233 118.977C665.051 118.611 664.96 118.158 664.96 117.618V113.455H666.234V117.464C666.234 117.911 666.358 118.266 666.605 118.53C666.852 118.794 667.173 118.926 667.568 118.926C667.807 118.926 668.044 118.866 668.28 118.747C668.518 118.628 668.716 118.447 668.872 118.206C669.031 117.964 669.109 117.658 669.106 117.286ZM677.002 115.053L675.847 115.257C675.798 115.109 675.722 114.969 675.617 114.835C675.514 114.702 675.375 114.592 675.199 114.507C675.023 114.422 674.803 114.379 674.539 114.379C674.178 114.379 673.877 114.46 673.635 114.622C673.394 114.781 673.273 114.987 673.273 115.24C673.273 115.459 673.354 115.635 673.516 115.768C673.678 115.902 673.939 116.011 674.3 116.097L675.34 116.335C675.942 116.474 676.391 116.689 676.686 116.979C676.982 117.268 677.129 117.645 677.129 118.108C677.129 118.5 677.016 118.849 676.789 119.156C676.564 119.46 676.25 119.699 675.847 119.872C675.446 120.045 674.982 120.132 674.453 120.132C673.72 120.132 673.122 119.976 672.659 119.663C672.196 119.348 671.912 118.901 671.807 118.321L673.039 118.134C673.115 118.455 673.273 118.697 673.512 118.862C673.75 119.024 674.061 119.105 674.445 119.105C674.862 119.105 675.196 119.018 675.446 118.845C675.696 118.669 675.821 118.455 675.821 118.202C675.821 117.997 675.744 117.825 675.591 117.686C675.441 117.547 675.209 117.442 674.896 117.371L673.789 117.128C673.178 116.989 672.726 116.767 672.433 116.463C672.144 116.159 671.999 115.774 671.999 115.308C671.999 114.922 672.107 114.584 672.323 114.294C672.539 114.004 672.837 113.778 673.218 113.616C673.598 113.452 674.034 113.369 674.526 113.369C675.233 113.369 675.79 113.523 676.196 113.83C676.602 114.134 676.871 114.541 677.002 115.053ZM681.586 113.455V114.477H678.01V113.455H681.586ZM678.969 111.886H680.243V118.078C680.243 118.325 680.28 118.511 680.354 118.636C680.428 118.759 680.523 118.842 680.64 118.888C680.759 118.93 680.888 118.952 681.028 118.952C681.13 118.952 681.219 118.945 681.296 118.93C681.373 118.916 681.432 118.905 681.475 118.896L681.705 119.949C681.631 119.977 681.526 120.006 681.39 120.034C681.253 120.065 681.083 120.082 680.878 120.085C680.543 120.091 680.231 120.031 679.941 119.906C679.651 119.781 679.417 119.588 679.238 119.327C679.059 119.065 678.969 118.737 678.969 118.342V111.886ZM685.682 120.132C685.068 120.132 684.533 119.991 684.075 119.71C683.618 119.429 683.263 119.036 683.01 118.53C682.757 118.024 682.631 117.433 682.631 116.757C682.631 116.078 682.757 115.484 683.01 114.976C683.263 114.467 683.618 114.072 684.075 113.791C684.533 113.51 685.068 113.369 685.682 113.369C686.296 113.369 686.831 113.51 687.289 113.791C687.746 114.072 688.101 114.467 688.354 114.976C688.607 115.484 688.733 116.078 688.733 116.757C688.733 117.433 688.607 118.024 688.354 118.53C688.101 119.036 687.746 119.429 687.289 119.71C686.831 119.991 686.296 120.132 685.682 120.132ZM685.686 119.062C686.084 119.062 686.414 118.957 686.675 118.747C686.936 118.537 687.129 118.257 687.254 117.908C687.382 117.558 687.446 117.173 687.446 116.753C687.446 116.335 687.382 115.952 687.254 115.602C687.129 115.25 686.936 114.967 686.675 114.754C686.414 114.541 686.084 114.435 685.686 114.435C685.286 114.435 684.953 114.541 684.689 114.754C684.428 114.967 684.233 115.25 684.105 115.602C683.98 115.952 683.918 116.335 683.918 116.753C683.918 117.173 683.98 117.558 684.105 117.908C684.233 118.257 684.428 118.537 684.689 118.747C684.953 118.957 685.286 119.062 685.686 119.062ZM690.155 120V113.455H691.378V114.52H691.459C691.596 114.159 691.819 113.878 692.128 113.676C692.438 113.472 692.809 113.369 693.241 113.369C693.678 113.369 694.045 113.472 694.34 113.676C694.638 113.881 694.858 114.162 695.001 114.52H695.069C695.225 114.17 695.474 113.892 695.814 113.685C696.155 113.474 696.562 113.369 697.033 113.369C697.627 113.369 698.111 113.555 698.486 113.928C698.864 114.3 699.053 114.861 699.053 115.611V120H697.779V115.73C697.779 115.287 697.658 114.966 697.417 114.767C697.175 114.568 696.887 114.469 696.552 114.469C696.137 114.469 695.814 114.597 695.584 114.852C695.354 115.105 695.239 115.43 695.239 115.828V120H693.969V115.649C693.969 115.294 693.858 115.009 693.637 114.793C693.415 114.577 693.127 114.469 692.772 114.469C692.53 114.469 692.307 114.533 692.103 114.661C691.901 114.786 691.738 114.96 691.613 115.185C691.491 115.409 691.43 115.669 691.43 115.964V120H690.155ZM706.387 120.128C705.858 120.128 705.387 119.993 704.972 119.723C704.56 119.45 704.236 119.062 704.001 118.56C703.768 118.054 703.651 117.447 703.651 116.74C703.651 116.033 703.769 115.428 704.005 114.925C704.243 114.422 704.57 114.037 704.985 113.77C705.4 113.503 705.87 113.369 706.395 113.369C706.802 113.369 707.128 113.438 707.376 113.574C707.626 113.707 707.819 113.864 707.955 114.043C708.094 114.222 708.202 114.379 708.279 114.516H708.356V111.273H709.63V120H708.385V118.982H708.279C708.202 119.121 708.091 119.28 707.947 119.459C707.805 119.638 707.608 119.794 707.358 119.928C707.108 120.061 706.785 120.128 706.387 120.128ZM706.668 119.041C707.035 119.041 707.344 118.945 707.597 118.751C707.853 118.555 708.046 118.284 708.177 117.938C708.31 117.591 708.377 117.187 708.377 116.727C708.377 116.273 708.312 115.875 708.181 115.534C708.05 115.193 707.858 114.928 707.606 114.737C707.353 114.547 707.04 114.452 706.668 114.452C706.285 114.452 705.965 114.551 705.709 114.75C705.454 114.949 705.26 115.22 705.13 115.564C705.002 115.908 704.938 116.295 704.938 116.727C704.938 117.165 705.003 117.558 705.134 117.908C705.265 118.257 705.458 118.534 705.714 118.739C705.972 118.94 706.29 119.041 706.668 119.041ZM713.353 120.145C712.938 120.145 712.563 120.068 712.228 119.915C711.893 119.759 711.627 119.533 711.431 119.237C711.238 118.942 711.142 118.58 711.142 118.151C711.142 117.781 711.213 117.477 711.355 117.239C711.497 117 711.688 116.811 711.93 116.672C712.171 116.533 712.441 116.428 712.74 116.357C713.038 116.286 713.342 116.232 713.651 116.195C714.044 116.149 714.362 116.112 714.606 116.084C714.85 116.053 715.028 116.003 715.139 115.935C715.249 115.866 715.305 115.756 715.305 115.602V115.572C715.305 115.2 715.2 114.912 714.99 114.707C714.782 114.503 714.472 114.401 714.061 114.401C713.632 114.401 713.294 114.496 713.046 114.686C712.802 114.874 712.633 115.082 712.539 115.312L711.342 115.04C711.484 114.642 711.691 114.321 711.964 114.077C712.24 113.83 712.556 113.651 712.914 113.54C713.272 113.426 713.649 113.369 714.044 113.369C714.305 113.369 714.582 113.401 714.874 113.463C715.17 113.523 715.445 113.634 715.701 113.795C715.96 113.957 716.171 114.189 716.336 114.49C716.501 114.788 716.583 115.176 716.583 115.653V120H715.339V119.105H715.288C715.205 119.27 715.082 119.432 714.917 119.591C714.752 119.75 714.541 119.882 714.282 119.987C714.024 120.092 713.714 120.145 713.353 120.145ZM713.63 119.122C713.982 119.122 714.284 119.053 714.534 118.913C714.786 118.774 714.978 118.592 715.109 118.368C715.242 118.141 715.309 117.898 715.309 117.639V116.795C715.264 116.841 715.176 116.884 715.045 116.923C714.917 116.96 714.771 116.993 714.606 117.021C714.441 117.047 714.281 117.071 714.124 117.094C713.968 117.114 713.838 117.131 713.732 117.145C713.485 117.176 713.259 117.229 713.055 117.303C712.853 117.376 712.691 117.483 712.569 117.622C712.45 117.759 712.39 117.94 712.39 118.168C712.39 118.483 712.507 118.722 712.74 118.884C712.972 119.043 713.269 119.122 713.63 119.122ZM721.336 113.455V114.477H717.76V113.455H721.336ZM718.719 111.886H719.993V118.078C719.993 118.325 720.03 118.511 720.104 118.636C720.178 118.759 720.273 118.842 720.39 118.888C720.509 118.93 720.638 118.952 720.778 118.952C720.88 118.952 720.969 118.945 721.046 118.93C721.123 118.916 721.182 118.905 721.225 118.896L721.455 119.949C721.381 119.977 721.276 120.006 721.14 120.034C721.003 120.065 720.833 120.082 720.628 120.085C720.293 120.091 719.981 120.031 719.691 119.906C719.401 119.781 719.167 119.588 718.988 119.327C718.809 119.065 718.719 118.737 718.719 118.342V111.886ZM724.65 120.145C724.235 120.145 723.86 120.068 723.525 119.915C723.19 119.759 722.924 119.533 722.728 119.237C722.535 118.942 722.438 118.58 722.438 118.151C722.438 117.781 722.509 117.477 722.651 117.239C722.794 117 722.985 116.811 723.227 116.672C723.468 116.533 723.738 116.428 724.036 116.357C724.335 116.286 724.639 116.232 724.948 116.195C725.34 116.149 725.659 116.112 725.903 116.084C726.147 116.053 726.325 116.003 726.436 115.935C726.546 115.866 726.602 115.756 726.602 115.602V115.572C726.602 115.2 726.497 114.912 726.286 114.707C726.079 114.503 725.769 114.401 725.357 114.401C724.928 114.401 724.59 114.496 724.343 114.686C724.099 114.874 723.93 115.082 723.836 115.312L722.639 115.04C722.781 114.642 722.988 114.321 723.261 114.077C723.536 113.83 723.853 113.651 724.211 113.54C724.569 113.426 724.945 113.369 725.34 113.369C725.602 113.369 725.879 113.401 726.171 113.463C726.467 113.523 726.742 113.634 726.998 113.795C727.257 113.957 727.468 114.189 727.633 114.49C727.798 114.788 727.88 115.176 727.88 115.653V120H726.636V119.105H726.585C726.502 119.27 726.379 119.432 726.214 119.591C726.049 119.75 725.838 119.882 725.579 119.987C725.32 120.092 725.011 120.145 724.65 120.145ZM724.927 119.122C725.279 119.122 725.58 119.053 725.83 118.913C726.083 118.774 726.275 118.592 726.406 118.368C726.539 118.141 726.606 117.898 726.606 117.639V116.795C726.561 116.841 726.472 116.884 726.342 116.923C726.214 116.96 726.068 116.993 725.903 117.021C725.738 117.047 725.578 117.071 725.421 117.094C725.265 117.114 725.134 117.131 725.029 117.145C724.782 117.176 724.556 117.229 724.352 117.303C724.15 117.376 723.988 117.483 723.866 117.622C723.747 117.759 723.687 117.94 723.687 118.168C723.687 118.483 723.803 118.722 724.036 118.884C724.269 119.043 724.566 119.122 724.927 119.122Z" fill="#F3F4F6"/>
<path d="M283 165L285.887 160L280.113 160L283 165ZM285.667 139C285.667 137.527 284.473 136.333 283 136.333C281.527 136.333 280.333 137.527 280.333 139C280.333 140.473 281.527 141.667 283 141.667C284.473 141.667 285.667 140.473 285.667 139ZM282.5 139L282.5 152L283.5 152L283.5 139L282.5 139ZM282.5 152L282.5 160.5L283.5 160.5L283.5 152L282.5 152Z" fill="#5BC78D"/>
<path d="M283 231L285.887 226L280.113 226L283 231ZM285.667 202C285.667 200.527 284.473 199.333 283 199.333C281.527 199.333 280.333 200.527 280.333 202C280.333 203.473 281.527 204.667 283 204.667C284.473 204.667 285.667 203.473 285.667 202ZM282.5 202L282.5 216.5L283.5 216.5L283.5 202L282.5 202ZM282.5 216.5L282.5 226.5L283.5 226.5L283.5 216.5L282.5 216.5Z" fill="#798EF6"/>
<path d="M393 320L395.887 315L390.113 315L393 320ZM395.667 284C395.667 282.527 394.473 281.333 393 281.333C391.527 281.333 390.333 282.527 390.333 284C390.333 285.473 391.527 286.667 393 286.667C394.473 286.667 395.667 285.473 395.667 284ZM392.5 284L392.5 302L393.5 302L393.5 284L392.5 284ZM392.5 302L392.5 315.5L393.5 315.5L393.5 302L392.5 302Z" fill="#798EF6"/>
<path d="M393 395L395.887 390L390.113 390L393 395ZM395.667 356C395.667 354.527 394.473 353.333 393 353.333C391.527 353.333 390.333 354.527 390.333 356C390.333 357.473 391.527 358.667 393 358.667C394.473 358.667 395.667 357.473 395.667 356ZM392.5 356L392.5 375.5L393.5 375.5L393.5 356L392.5 356ZM392.5 375.5L392.5 390.5L393.5 390.5L393.5 375.5L392.5 375.5Z" fill="#798EF6"/>
<path d="M492 231L494.887 226L489.113 226L492 231ZM494.667 202C494.667 200.527 493.473 199.333 492 199.333C490.527 199.333 489.333 200.527 489.333 202C489.333 203.473 490.527 204.667 492 204.667C493.473 204.667 494.667 203.473 494.667 202ZM491.5 202L491.5 216.5L492.5 216.5L492.5 202L491.5 202ZM491.5 216.5L491.5 226.5L492.5 226.5L492.5 216.5L491.5 216.5Z" fill="#798EF6"/>
<path d="M491 165L493.887 160L488.113 160L491 165ZM493.667 139C493.667 137.527 492.473 136.333 491 136.333C489.527 136.333 488.333 137.527 488.333 139C488.333 140.473 489.527 141.667 491 141.667C492.473 141.667 493.667 140.473 493.667 139ZM490.5 139L490.5 152L491.5 152L491.5 139L490.5 139ZM490.5 152L490.5 160.5L491.5 160.5L491.5 152L490.5 152Z" fill="#FBC14B"/>
<path d="M184 116L179 113.113V118.887L184 116ZM152 113.333C150.527 113.333 149.333 114.527 149.333 116C149.333 117.473 150.527 118.667 152 118.667C153.473 118.667 154.667 117.473 154.667 116C154.667 114.527 153.473 113.333 152 113.333ZM152 116.5H168V115.5H152V116.5ZM168 116.5H179.5V115.5H168V116.5Z" fill="#5BC78D"/>
<path d="M611 116L616 118.887L616 113.113L611 116ZM643 118.667C644.473 118.667 645.667 117.473 645.667 116C645.667 114.527 644.473 113.333 643 113.333C641.527 113.333 640.333 114.527 640.333 116C640.333 117.473 641.527 118.667 643 118.667ZM643 115.5L627 115.5L627 116.5L643 116.5L643 115.5ZM627 115.5L615.5 115.5L615.5 116.5L627 116.5L627 115.5Z" fill="#FBC14B"/>
</svg>
